<?xml version="1.0" encoding="UTF-8" standalone="no"?>
<svg
   xmlns:dc="http://purl.org/dc/elements/1.1/"
   xmlns:cc="http://creativecommons.org/ns#"
   xmlns:rdf="http://www.w3.org/1999/02/22-rdf-syntax-ns#"
   xmlns:svg="http://www.w3.org/2000/svg"
   xmlns="http://www.w3.org/2000/svg"
   xmlns:sodipodi="http://sodipodi.sourceforge.net/DTD/sodipodi-0.dtd"
   xmlns:inkscape="http://www.inkscape.org/namespaces/inkscape"
   aria-label="dev.to"
   viewBox="0 0 512 512"
   version="1.1"
   id="svg6"
   sodipodi:docname="youtube.svg"
   inkscape:version="1.0.1 (3bc2e813f5, 2020-09-07)">
  <metadata
     id="metadata12">
    <rdf:RDF>
      <cc:Work
         rdf:about="">
        <dc:format>image/svg+xml</dc:format>
        <dc:type
           rdf:resource="http://purl.org/dc/dcmitype/StillImage" />
        <dc:title></dc:title>
      </cc:Work>
    </rdf:RDF>
  </metadata>
  <defs
     id="defs10">
    <inkscape:path-effect
       effect="powerstroke"
       id="path-effect162"
       is_visible="true"
       lpeversion="1"
       offset_points="3,0.5"
       sort_points="true"
       interpolator_type="CubicBezierJohan"
       interpolator_beta="0.2"
       start_linecap_type="zerowidth"
       linejoin_type="extrp_arc"
       miter_limit="4"
       scale_width="1"
       end_linecap_type="zerowidth" />
    <inkscape:path-effect
       effect="powerstroke"
       id="path-effect113"
       is_visible="true"
       lpeversion="1"
       offset_points="2,0.5"
       sort_points="true"
       interpolator_type="CubicBezierJohan"
       interpolator_beta="0.2"
       start_linecap_type="zerowidth"
       linejoin_type="extrp_arc"
       miter_limit="4"
       scale_width="1"
       end_linecap_type="zerowidth" />
    <inkscape:path-effect
       effect="powerstroke"
       id="path-effect109"
       is_visible="true"
       lpeversion="1"
       offset_points="0,0.5"
       sort_points="true"
       interpolator_type="CubicBezierJohan"
       interpolator_beta="0.2"
       start_linecap_type="zerowidth"
       linejoin_type="extrp_arc"
       miter_limit="4"
       scale_width="1"
       end_linecap_type="zerowidth" />
  </defs>
  <sodipodi:namedview
     pagecolor="#ffffff"
     bordercolor="#666666"
     borderopacity="1"
     objecttolerance="10"
     gridtolerance="10"
     guidetolerance="10"
     inkscape:pageopacity="0"
     inkscape:pageshadow="2"
     inkscape:window-width="1366"
     inkscape:window-height="705"
     id="namedview8"
     showgrid="false"
     inkscape:zoom="1.0076756"
     inkscape:cx="215.10206"
     inkscape:cy="261.78851"
     inkscape:window-x="-8"
     inkscape:window-y="-8"
     inkscape:window-maximized="1"
     inkscape:current-layer="svg6"
     inkscape:snap-center="true"
     inkscape:snap-object-midpoints="true" />
  <path
     id="rect2"
     style="fill:#ff0000;fill-opacity:1"
     d="M 76.800781,0 C 34.25358,0 0,34.25358 0,76.800781 V 435.19922 C 0,477.74642 34.25358,512 76.800781,512 H 435.19922 C 477.74642,512 512,477.74642 512,435.19922 V 76.800781 C 512,34.25358 477.74642,0 435.19922,0 Z m 83.468749,56.970703 c 3.23535,6.990906 8.54609,13.357078 9.70508,20.972656 0.56825,3.733902 -3.20892,6.841641 -4.96484,10.185547 -4.03755,7.688963 -8.15101,15.337494 -12.31836,22.957034 1.58924,-1.3547 3.38005,-2.80138 5.75586,-4.60938 1.46167,-1.11233 2.88117,-2.40414 4.61523,-3.00976 1.81113,-0.63254 4.13299,-2.10252 6.16602,-2.76563 4.3342,-3.182987 6.14584,-4.596717 8.35742,-5.955076 0.0716,-0.10214 0.049,-0.07791 0.1289,-0.191406 -0.0582,0.09692 -0.0634,0.102709 -0.10937,0.179687 0.35761,-0.219378 0.73614,-0.441798 1.13672,-0.671875 3.71946,-3.940903 10.97949,-11.089561 13.20117,-6.816406 4.07174,-1.903423 8.89117,-3.81861 12.83594,-4.388672 6.02501,-0.870682 7.74973,-0.02366 13.04101,1.25 l 2.37696,0.658203 c 0.4829,0.04688 1.28591,0.174315 1.67578,0.240234 0.20978,0.03547 -0.4226,0.03113 -0.63477,0.04687 l -1.04101,-0.287109 c -0.3182,-0.03089 -0.52481,-0.03501 -0.28321,0.0625 4.31795,1.742739 8.89049,2.828485 13.15625,4.695313 1.80039,0.787906 3.40101,1.999289 4.9375,3.224609 2.69438,2.148717 5.1483,4.581904 7.72266,6.873047 5.19564,5.518016 5.70581,5.372856 9.54492,13.226566 0.95149,1.94645 1.46651,4.0805 2.09375,6.15429 0.11831,0.39117 0.2124,0.78844 0.31641,1.1836 0.008,-0.0164 0.0171,-0.0324 0.0254,-0.0488 5.41498,-8.29443 9.15596,-14.03795 14.82812,-22.650392 1.90752,-2.896308 2.31885,-8.154433 5.74805,-8.671875 0.42409,-0.06399 0.85346,-0.101777 1.28516,-0.126953 -0.22028,-1.122132 0.2627,-1.767976 1.72656,-1.611328 1.3384,0.143222 2.58521,0.303933 3.78906,0.472656 1.40394,-3.152388 2.72247,-6.342797 4.01367,-9.542969 -0.10099,-0.06158 -0.20604,-0.117549 -0.30664,-0.179687 -0.19094,-0.117937 0.62867,-0.604699 0.54492,-0.396484 -0.0775,0.192791 -0.16052,0.383451 -0.23828,0.576171 5.19635,3.168707 10.88622,5.633472 16.17188,8.654297 0.0702,-0.185921 0.13532,-0.374267 0.20898,-0.558594 0.29441,0.104608 0.59165,0.201702 0.88672,0.304688 0.16855,-0.680194 0.3444,-1.358581 0.51172,-2.039062 -0.35891,0.0013 -0.7197,0.01685 -1.07813,0.01367 0.42457,-0.106521 0.79444,-0.183367 1.13672,-0.246093 0.0865,-0.35191 0.17753,-0.702708 0.26367,-1.054688 0.0523,-0.213681 -0.39652,-0.717172 -0.19335,-0.632812 0.2769,0.114971 0.55146,0.236018 0.82812,0.351562 -5.1774,-4.885173 -14.16289,-9.141557 -19.44336,-6.763672 -1.06733,1.426032 -2.27972,3.255835 -3.92578,5.486328 0.57408,-2.903027 2.00959,-4.623435 3.92578,-5.486328 4.71645,-6.301521 6.54236,-4.610979 29.82813,6.347656 0.63799,0.300252 0.81874,0.845069 0.74609,1.515626 5.97025,-0.297434 11.9245,-0.430425 17.73828,0.755859 1.9376,0.395362 -0.23077,3.968182 -0.67773,5.894531 -1.86189,8.024404 -3.99464,15.984502 -6.18555,23.925782 1.59436,-0.63573 3.04009,-1.07375 4.14258,-1.14844 3.91805,-0.26543 7.80631,0.87383 11.70898,1.31055 0.36126,1.68677 0.7775,3.36599 1.20703,5.04297 2.38755,0.76129 4.77668,1.51933 7.17969,2.21875 0.62295,2.84504 2.40946,5.67327 1.86914,8.53515 -1.26142,6.68141 -4.20457,12.92519 -6.76562,19.24024 0.91554,0.14778 1.82885,0.30251 2.74414,0.45117 1.3107,-0.84667 2.83491,-0.54468 5.27734,0.91211 4.28677,0.80328 8.51691,1.79376 12.57227,3.36914 1.48106,0.57534 -0.97005,3.04346 -1.70313,4.45313 -0.013,0.0251 -0.0279,0.0492 -0.041,0.0742 2.4581,1.87663 5.27876,4.01923 8.625,6.49219 1.58906,1.17436 -1.28631,3.74412 -2.125,5.5332 -0.76387,1.62949 -1.57778,3.23417 -2.40235,4.83399 -0.91075,3.13802 -1.82794,6.27338 -2.86523,9.37109 1.45021,0.28612 2.88553,0.58635 4.2168,0.89063 3.37703,-6.40668 6.78143,-12.79865 10.12109,-19.22461 0.006,-0.0195 0.0117,-0.0391 0.0176,-0.0586 0.67936,-2.24422 -0.10097,-6.53814 2.24023,-6.66796 15.41452,-0.85479 23.63879,-0.97619 27.06055,1.48632 4.71944,-2.63749 9.26527,-3.2214 11.63086,1.91016 3.12403,0.22754 5.3997,1.64551 5.95898,5.21484 0.005,0.005 0.0104,0.009 0.0156,0.0137 0.87003,0.77904 0.87293,2.31141 0.34375,4.24023 0.009,0.10467 0.018,0.20836 0.0254,0.3125 0.0444,0.0198 0.0805,0.0368 0.125,0.0566 1.44514,0.6448 -0.65855,3.10415 -1.18164,4.59766 -0.85444,2.43956 -1.97566,4.76532 -3.20703,7.04297 -0.21111,2.02053 -0.70936,4.0914 -0.83594,6.07617 -0.45005,7.05639 -0.85085,14.12678 -1.71485,21.14453 -1.28118,10.40625 -2.65681,20.80669 -4.32617,31.1582 2.09318,1.37475 2.71902,2.88009 2.38867,4.78906 0.0658,0.0473 0.11939,0.0853 0.18555,0.13282 2.21722,1.59369 -2.18194,5.00685 -3.27344,7.50976 -0.91557,2.0995 -1.81867,4.20481 -2.72461,6.3086 -1.1756,5.72805 -2.54849,11.93195 -4.00781,18.30078 1.33694,2.4191 -0.18141,5.39406 -2.44922,11.98437 -0.43636,1.36196 -0.8824,2.72003 -1.32422,4.08008 -3.4686,14.44117 -7.02018,28.57931 -9.60546,39.16211 -1.80897,4.79063 -2.31796,10.30121 -5.42579,14.37109 -0.93734,1.22751 -1.79357,1.9828 -2.58984,2.40039 -0.46831,1.72644 -0.94652,3.44944 -1.39062,5.1836 -0.30205,1.17944 -0.54107,2.37355 -0.76758,3.57031 0.18085,0.42425 0.35828,0.81245 0.54101,1.25195 6.06902,14.59664 -26.61082,15.71797 -27.73242,5.10938 -0.14368,-1.35904 -0.21383,-2.68569 -0.25195,-3.99805 -0.90098,-0.14352 -1.80049,-0.29926 -2.69531,-0.48828 -1.44935,-0.30617 0.0696,-2.97198 0.31054,-4.43359 0.0865,-0.52495 0.18214,-1.04869 0.27735,-1.57227 -0.61255,-0.51624 -1.00823,-1.05641 -1.125,-1.62109 -2.8316,4.78191 -5.44185,8.90004 -7.30469,11.14258 -0.54797,0.65966 -1.22944,1.20904 -1.98047,1.67187 -2.11327,4.14774 -3.89459,4.98107 -9.18164,1.52149 -4.89726,-0.3599 -11.64439,-1.43984 -8.83008,-3.21094 0.86433,-0.54394 1.68337,-1.04272 2.47266,-1.51172 -1.0753,-0.85835 -2.28181,-1.83848 -3.54102,-2.86914 -5.96491,-1.64176 -7.54281,-3.0425 -7.1914,-5.92969 -0.25486,-0.21069 -0.42109,-0.34719 -0.68164,-0.5625 -0.9034,-0.74652 -0.55696,-1.80966 0.14843,-2.9668 -0.91072,-0.49265 -1.90189,-1.0595 -2.96484,-1.68554 -0.56693,-0.0744 -1.14217,-0.48766 -1.63281,-0.98633 -2.26768,-1.37324 -4.86605,-3.01025 -7.85547,-4.93945 -2.74763,0.46915 -5.52153,0.75368 -8.29883,1.01367 -3.4762,1.19593 -6.97834,1.87291 -10.54492,1.2207 -0.19446,-0.0356 -0.36595,-0.0996 -0.54102,-0.16016 -6.76157,0.65415 -18.29463,1.75549 -21.60351,1.94141 -5.29711,0.29763 -10.60261,0.39968 -15.9043,0.59961 -0.26301,0.003 -0.52606,0.008 -0.78906,0.0117 2.59413,9.3027 -0.4495,14.35773 -22.5293,-0.12695 -0.98651,-0.0402 -1.98946,-0.0802 -2.77539,-0.13282 -0.83647,-0.056 -2.52505,0.543 -2.49805,-0.29492 0.0378,-1.17405 0.0438,-2.2193 0.0586,-3.30273 -14.79456,1.94981 -29.61106,3.80657 -44.47461,5.11328 -5.78244,4.28786 -10.21479,6.45891 -22.52735,8.83984 -4.52662,0.87533 -9.2661,0.12289 -13.81836,-0.60742 -7.25301,-1.16359 -14.51811,-2.62327 -21.45117,-5.05078 -1.26312,-0.44226 -3.30525,-2.31815 -5.37695,-4.48828 -2.25889,3.98845 -4.53663,7.96527 -6.84375,11.92578 -1.5207,2.61051 -1.91549,7.13605 -4.89649,7.62695 -8.693368,1.43157 -19.46012,3.04728 -26.314449,-2.48828 -3.852859,-3.11156 -2.104837,-8.569 0.447266,-13.36719 0.0022,-0.28778 0.114653,-0.617 0.269531,-0.96093 0.0015,-0.36361 0.310403,-0.8298 0.746094,-1.33985 0.267347,-0.42831 0.52693,-0.83946 0.703125,-1.19336 2.822023,-5.66827 5.768525,-11.27344 8.740234,-16.86523 -0.06688,-0.0708 -0.130738,-0.14379 -0.197265,-0.21485 -2.029137,-0.5597 -4.045519,-1.16035 -6.03125,-1.86328 -0.813771,-0.28806 -0.07611,-1.77611 0.238281,-2.58008 0.234038,-0.59847 0.477827,-1.19293 0.712891,-1.79101 -0.160412,-0.22817 -0.325733,-0.45316 -0.482422,-0.68359 -0.49842,-0.73299 -0.01604,-1.82653 0.96289,-3.03125 -3.595892,-1.92472 -5.884647,-2.98988 -8.041015,-5.42969 -6.291503,5.76161 -14.216826,7.18882 -24.615235,-11.47461 -1.782789,-3.19982 1.04811,-6.08464 4.623047,-8.81836 0.163986,-0.46998 0.333589,-0.93764 0.496094,-1.4082 -1.955045,0.99638 -2.089011,1.45148 0.603515,-1.72461 0.224818,-0.64919 0.450207,-1.29794 0.679688,-1.94532 -0.305048,-3.80664 1.660584,-8.57735 4.578125,-10.76953 0.809849,-1.65011 1.684275,-3.39889 2.636719,-5.26367 -14.800488,-3.36302 -14.75746,-3.07603 -9.53125,-10.45508 0.327206,-0.4878 0.655025,-0.97522 0.982422,-1.46289 -1.450832,-1.55484 -0.189876,-6.00411 1.519531,-10.22461 0.0321,-0.12385 0.06972,-0.24661 0.09766,-0.37109 0.49044,-2.1609 0.979319,-4.3216 1.46875,-6.48242 -3.048017,-2.96005 -7.043814,-7.32741 -12.679687,-13.45899 -1.691797,-1.8406 1.139849,-4.61693 2.591796,-6.98632 -0.697977,-0.28087 -0.750922,-0.36856 0.123047,-0.2168 0.109497,-0.18867 0.23245,-0.3804 0.31836,-0.5625 3.767555,-7.98582 19.207131,-36.48783 21.300781,-40.27344 3.802629,-6.87568 7.802419,-13.64238 11.703125,-20.46289 13.978212,-24.45251 24.006745,-41.98826 37.769535,-66.089844 5.01708,-8.785984 10.03227,-17.573927 15.04687,-26.361328 -0.10763,-0.414649 0.37774,-1.000177 0.9082,-1.589844 0.56796,-0.995268 1.13517,-1.99106 1.70313,-2.986328 0.49597,-0.869114 0.50052,-2.792086 1.48437,-2.609375 0.33253,0.06175 0.66701,0.127182 1,0.189453 0.0112,-0.01104 0.022,-0.02224 0.0332,-0.0332 0.32269,-0.66152 0.69375,-1.057055 1.15429,-1.001953 3.39245,-2.548807 7.5446,-2.609471 17.7793,-7.578125 z M 50.068359,226.33008 c -0.04223,0.0728 -0.07795,0.1432 -0.123047,0.2168 0.323161,0.13002 0.641518,0.2601 1.251954,0.49218 0.101777,-0.14625 0.20611,-0.29152 0.316406,-0.4375 -0.580379,-0.1122 -1.117205,-0.21451 -1.445313,-0.27148 z M 358.09766,355.39844 c 0.55586,-0.93873 1.09629,-1.83119 1.66796,-2.82032 -1.36114,1.00036 -1.84994,1.94028 -1.66796,2.82032 z m 1.66796,-2.82032 c 0.1361,-0.1 0.30326,-0.2015 0.45704,-0.30273 0.0643,-0.27819 0.12883,-0.55633 0.19531,-0.83398 -0.21818,0.38047 -0.43573,0.76194 -0.65235,1.13671 z m 0.45704,-0.30273 c -0.36397,1.57506 -0.71086,3.15395 -1,4.74414 0.56088,0.47271 1.31222,0.92465 2.20117,1.35742 0.0502,-0.7315 0.10706,-1.46163 0.18555,-2.18164 -0.47914,-0.11781 -0.96108,-0.22526 -1.43946,-0.3457 0.47834,-1.26403 1.07829,-2.86075 1.78125,-4.54297 -0.66259,0.3287 -1.24743,0.65206 -1.72851,0.96875 z m 70.67578,-178.99414 c -0.0376,-0.0168 -0.068,-0.0321 -0.10547,-0.0488 -0.2422,0.82575 -0.57889,1.71848 -0.98047,2.6543 0.20006,-0.0177 0.39873,-0.0399 0.59961,-0.0547 -0.0995,0.25968 -0.17815,0.46256 -0.26953,0.70117 0.79552,-0.49979 0.8566,-1.83334 0.75586,-3.25195 z m -0.75586,3.25195 c -0.15722,0.0988 -0.33515,0.17211 -0.55469,0.19922 -0.0533,0.007 -0.10683,0.0112 -0.16016,0.0176 -0.63377,1.38044 -1.38422,2.82505 -2.19335,4.26953 1.17756,-0.0684 1.74953,-1.46081 2.9082,-4.48633 z m -0.71485,0.2168 c 0.13371,-0.29124 0.26281,-0.57907 0.38477,-0.86328 -1.22895,0.10845 -2.43473,0.28114 -3.62695,0.47851 -0.007,0.21982 -0.0141,0.43908 -0.0234,0.66407 1.09111,-0.0564 2.18009,-0.14911 3.26562,-0.2793 z m 1.36524,-3.51758 c 0.0255,-0.087 0.0566,-0.17817 0.0801,-0.26367 -0.0797,-0.94234 -0.20684,-1.89504 -0.2168,-2.63477 -0.008,-0.58957 -0.064,-1.11772 -0.14258,-1.61914 -1.52929,-1.36541 -3.28487,-2.32673 -5.17969,-3.01367 0.398,1.47177 0.66362,3.2785 0.79883,5.40039 1.44788,0.67779 3.00808,1.392 4.66016,2.13086 z m -5.45899,-7.53125 c -0.22366,-0.82711 -0.48353,-1.55959 -0.77929,-2.20117 -2.0473,-0.14912 -4.45981,0.22011 -6.97657,0.80469 2.72925,0.11788 5.35791,0.52714 7.75586,1.39648 z m -51.8496,20.35352 c -0.0989,0.18753 -0.19809,0.37493 -0.29688,0.5625 -0.024,0.0456 -0.0482,0.0911 -0.0723,0.13672 2.12956,0.388 3.69398,0.64942 4.60547,0.76953 0.0202,-0.0181 0.0402,-0.0369 0.0605,-0.0547 0.0278,-0.10228 0.0562,-0.20436 0.084,-0.30664 -0.98127,-0.2922 -2.54368,-0.68751 -4.38085,-1.10742 z m -0.36915,0.69922 c -0.33523,-0.0611 -0.55864,-0.0974 -0.92773,-0.16602 0.17022,0.2972 0.35931,0.58738 0.54492,0.87891 0.12661,-0.23813 0.25698,-0.47438 0.38281,-0.71289 z m -0.38281,0.71289 c -1.01642,1.91172 -2.04778,3.81594 -3.0664,5.72656 0.80539,0.67435 1.60421,1.35456 2.40039,2.03711 0.39082,0.17292 0.71588,0.32808 1.06836,0.49023 0.68896,-1.56474 1.33784,-3.1972 2.08398,-4.67578 -0.84589,-1.18634 -1.71378,-2.36476 -2.48633,-3.57812 z m -3.0664,5.72656 c -0.88305,-0.73937 -1.76233,-1.48415 -2.63868,-2.23047 -0.24703,0.59279 -0.49386,1.18649 -0.73046,1.7832 0.96785,0.41185 2.10109,0.90303 2.93945,1.25977 0.14326,-0.27091 0.2855,-0.54206 0.42969,-0.8125 z m -2.63868,-2.23047 c 0.71827,-1.72359 1.44546,-3.44426 2.04688,-5.21094 0.0665,-0.19533 0.12784,-0.39223 0.19336,-0.58789 -0.2308,-0.0455 -0.44995,-0.0986 -0.67969,-0.14258 0.0345,1.30146 -1.23033,2.86574 -3.22656,4.50586 0.54968,0.48439 1.10742,0.95984 1.66601,1.43555 z M 306.93945,84.134766 c -0.0191,0.07759 -0.0395,0.154836 -0.0586,0.232422 0.81533,-0.0031 1.63187,-0.0071 2.44922,-0.0293 -0.0436,-0.05013 -0.0942,-0.10026 -0.13867,-0.150391 -0.34831,-0.231962 -1.05788,-0.271559 -2.25196,-0.05273 z M 177.60547,94.734375 c -0.006,0.0038 -0.0134,0.0079 -0.0195,0.01172 -0.29427,0.419595 -0.36904,0.543945 -0.53125,0.785156 0.1326,-0.1235 0.2635,-0.315873 0.55078,-0.796875 z M 140.17188,66.71875 c 0.0425,-0.0521 -0.0478,0.05042 -0.37305,0.408203 -0.008,0.02946 -0.0117,0.04108 -0.0195,0.07031 0.18505,-0.231848 0.35321,-0.430311 0.39258,-0.478516 z m -1.71094,7.310547 c 0.0417,0.108976 0.095,0.208083 0.16211,0.296875 0.0279,-0.05313 0.058,-0.105072 0.0859,-0.158203 -0.0828,-0.04606 -0.16535,-0.09238 -0.24804,-0.138672 z m 192.28711,17.453125 c -0.33928,0.03552 -0.44387,0.465841 -0.42188,1.105469 1.19996,0.528106 2.39775,1.06231 3.59961,1.585937 -1.53712,-1.787097 -2.48098,-2.575279 -3.01758,-2.68164 -0.0584,-0.01157 -0.11169,-0.01484 -0.16015,-0.0098 z M 163.78711,104.61328 c -3.49661,1.38307 -5.92614,2.57749 -6.68359,4.58594 1.18399,-0.80191 2.41758,-1.54123 3.58593,-2.36524 1.03828,-0.73227 2.06564,-1.47963 3.09766,-2.2207 z m 44.81055,7.85742 c -2.0885,0.79194 -4.10914,1.76317 -6.11524,2.7461 -2.75793,1.3513 -4.56858,2.23674 -5.95117,2.94726 -0.32755,0.33109 -0.65765,0.6601 -0.98828,0.98828 -0.1508,2.99842 -0.40641,5.98379 -0.76172,8.93555 -0.0927,0.76994 -0.25065,1.52115 -0.44727,2.25977 0.82103,-0.50844 1.50404,-0.91077 1.17774,-0.66993 -0.40084,0.29586 -0.81287,0.57688 -1.22461,0.85743 -0.0627,0.22575 -0.13581,0.44869 -0.20703,0.67187 3.63125,-1.83145 6.83552,-4.68536 10.77344,-5.66406 2.4681,-0.6134 9.73716,0.0859 7.51367,1.32031 -5.00358,2.77788 -11.16132,2.53537 -16.74219,3.80274 -0.90027,4.40924 -1.57455,7.44682 -2.0918,9.70507 5.50908,-3.62191 13.61587,-5.46774 27.28516,-5.19726 2.40907,0.0477 2.11697,2.30999 1.06055,5.19922 1.27384,-1.18989 2.52777,-2.40069 3.70898,-3.68164 1.11985,-1.21441 1.58792,-2.93384 2.70117,-4.1543 1.47399,-1.61599 1.43213,-0.31895 1.51563,0.28711 0.97887,0.47017 0.38269,0.2867 -0.16602,-2.00391 -0.29151,-1.21695 -0.69581,-2.40868 -0.90429,-3.64258 -0.0256,-0.15135 0.2398,-0.25198 0.2207,-0.40429 -0.36743,-2.92223 -1.09171,-2.71053 -3.44727,-5.29492 -1.29517,-1.28889 -2.48643,-2.69103 -3.88476,-3.86719 -1.05935,-0.89104 -3.57091,-0.92724 -3.45508,-2.30664 0.10567,-1.25858 4.22827,0.38939 3.71289,-0.76367 -0.55351,-1.23842 -2.71965,0.088 -4.07031,-0.0371 -3.28165,-0.3039 -4.41034,-0.7231 -7.26758,-1.52149 -0.58939,-0.16149 -1.32605,-0.33947 -1.94531,-0.51172 z m -14.31055,18.06446 c 0.0172,-0.062 0.0303,-0.12527 0.0469,-0.1875 -1.26752,0.78494 -2.91118,1.87185 -2.2207,1.71289 0.0967,-0.0817 0.19226,-0.16454 0.28906,-0.2461 0.62555,-0.42976 1.25752,-0.85192 1.88477,-1.27929 z m 134.46094,-12.11328 c -0.26982,0.96927 -0.54311,1.93739 -0.81446,2.90624 0.56083,-0.95842 1.09588,-1.90665 1.55469,-2.83398 -0.24747,-0.0235 -0.49661,-0.0444 -0.74023,-0.0723 z m 18.38476,2.16796 c 1.22535,4.72283 2.53782,9.43375 3.22071,14.23438 1.90096,-4.09948 3.90915,-8.2016 1.33789,-11.10938 -1.26984,-1.43602 -2.82496,-2.42548 -4.5586,-3.125 z M 341.70508,141.75 c -0.15558,0.002 -0.29724,0.019 -0.38477,0.0606 -0.0247,0.0117 -0.0495,0.0234 -0.0742,0.0351 0.41209,0.006 0.82423,0.0166 1.23633,0.0215 0.29069,0.003 -0.3106,-0.1235 -0.77734,-0.11719 z m 0.66797,2.04883 c -0.10689,0.0281 -1.44102,1.71598 -1.67383,2.76562 0.51161,-0.87439 1.03746,-1.74107 1.58789,-2.59179 0.0817,-0.12626 0.10594,-0.17909 0.0859,-0.17383 z m -109.35352,3.5664 c -1.18343,0.4154 -2.31169,0.84008 -3.37695,1.26368 0.70521,0.18739 1.36501,0.37351 1.98437,0.55859 0.27609,-0.24977 0.59435,-0.49235 0.95508,-0.72656 0.14368,-0.36999 0.28173,-0.73852 0.4375,-1.09571 z m -23.98047,4.59375 c -0.39575,0.0797 -0.79022,0.16358 -1.18359,0.25 0.0961,0.21634 0.19417,0.45001 0.29101,0.67383 0.25328,-0.21953 0.54352,-0.47988 0.8086,-0.71289 0.0186,-0.0415 0.036,-0.0835 0.0547,-0.125 0.0114,-0.0254 0.0182,-0.0599 0.0293,-0.0859 z m 216.1211,24.57813 c -0.28119,0.0517 -0.56322,0.0992 -0.8418,0.1543 0.0846,0.13067 0.16971,0.2605 0.25195,0.39257 0.2955,-0.006 0.5915,-0.0161 0.88672,-0.0273 -0.0835,-0.19435 -0.18065,-0.37021 -0.29687,-0.51953 z M 77.347656,191.6543 c -7.24e-4,0.0569 -0.01274,0.18016 -0.01172,0.22656 0.04122,-0.0654 0.08404,-0.12978 0.125,-0.19531 -0.03773,-0.0105 -0.07558,-0.0207 -0.113282,-0.0312 z M 374.1582,249.24805 c -0.47885,0.75671 -0.95864,1.51281 -1.4375,2.26953 0.40076,0.35002 0.79167,0.68219 1.17969,1.00976 0.3779,-1.4916 0.96949,-2.56806 2.26563,-2.29492 0.13514,0.0285 0.24306,0.0537 0.37695,0.082 0.14046,-0.15548 0.28562,-0.30008 0.43359,-0.43554 -0.0116,-0.002 -0.0213,-0.001 -0.0332,-0.004 -0.9877,-0.23435 -1.86226,-0.42067 -2.78516,-0.62695 z m 43.43164,8.25976 c -0.17797,0.31141 -0.33229,0.5795 -0.51562,0.9043 -0.0133,0.0673 -0.0277,0.13565 -0.041,0.20312 0.22822,-0.35443 0.42265,-0.72112 0.55664,-1.10742 z m -116.41406,1.51563 c -0.77347,0.52859 -1.52247,1.09902 -2.23437,1.73047 0.78842,0.45647 1.54155,0.8582 2.23242,1.17968 0.30811,-0.84534 0.60587,-1.69446 0.91601,-2.53906 -0.31213,-0.125 -0.59201,-0.24404 -0.91406,-0.37109 z M 56.160156,298.06836 c -0.290451,0.19045 -0.587461,0.3721 -0.875,0.56641 -0.418357,1.6829 -1.928164,6.64731 -1.255859,5.04882 0.776334,-1.84583 1.462937,-3.72678 2.130859,-5.61523 z m 235.765624,11.60547 c -1.55102,0.67052 -3.04471,1.33316 -4.48633,1.99219 1.32971,-0.0348 2.66016,-0.0609 3.99024,-0.0801 0.16571,-0.63732 0.33206,-1.27443 0.49609,-1.91211 z m -216.462889,6.41992 c -1.811699,1.40884 -3.613544,2.83117 -5.371094,4.30664 -0.284008,0.23843 0.852889,0.042 1.083984,-0.24805 1.062506,-1.33334 2.659309,-2.67549 4.308594,-4.02734 -0.0073,-0.01 -0.01416,-0.0213 -0.02148,-0.0312 z m 147.609379,9.6875 c -0.51,0.2691 -1.01915,0.5401 -1.52735,0.8125 -2.19426,2.01272 -4.42434,4.63122 -6.38867,8.05469 -1.41319,2.46294 1.14102,10.38886 2.76367,8.05859 2.66411,-3.82589 4.21159,-8.24311 5.60156,-12.75 -0.15974,-1.62412 -0.31428,-3.01527 -0.44921,-4.17578 z m -23.56446,13.90039 -1.4375,0.1582 c 0.10085,0.21262 0.19386,0.42763 0.29883,0.63868 0.32898,0.66142 0.96862,0.58566 1.72266,0.24804 -0.12358,-0.031 -0.22655,-0.0863 -0.26953,-0.19726 -0.1089,-0.28108 -0.20765,-0.56585 -0.31446,-0.84766 z m -118.873044,15.25 c -0.415183,2.72714 -1.039956,5.52183 1.048828,6.46484 5.217032,2.35531 11.0821,2.19228 16.951172,2.01172 -6.231097,-2.33878 -12.323251,-5.06168 -18,-8.47656 z m 28.642574,3.73047 c -0.37697,1.16237 -0.75294,2.31657 -1.02539,3.4043 0.55849,-0.95675 1.07524,-2.17497 1.02539,-3.4043 z m 279.14649,4.30664 c -0.10705,0.56548 -0.20812,1.1323 -0.32617,1.69531 -0.1175,0.56033 0.84577,-1.4901 0.32617,-1.69531 z m -1.15821,1.81836 c 0.43862,0.0939 0.92503,0.1931 1.24805,0.27539 0.0712,0.0181 0.0273,-0.1446 0.041,-0.2168 -0.42878,-0.0261 -0.8596,-0.0375 -1.28907,-0.0586 z" />
  <path
     id="path4"
     d="m 428.16992,176.07031 c -0.66647,0.0871 -1.32774,0.18622 -1.98437,0.29492 -0.007,0.21982 -0.0141,0.43908 -0.0234,0.66407 0.59651,-0.0308 1.19208,-0.0742 1.78711,-0.12696 z m -3.00976,0.4668 c -0.28119,0.0517 -0.56322,0.0992 -0.8418,0.1543 0.0846,0.13067 0.16971,0.2605 0.25195,0.39257 0.2955,-0.006 0.5915,-0.0161 0.88672,-0.0273 -0.0835,-0.19435 -0.18065,-0.37021 -0.29687,-0.51953 z m -48.71485,73.22656 -0.13086,0.50195 c 0.0739,0.0163 0.14742,0.0317 0.22852,0.0488 0.14046,-0.15548 0.28562,-0.30008 0.43359,-0.43554 -0.0116,-0.002 -0.0213,-0.001 -0.0332,-0.004 -0.17656,-0.0419 -0.32779,-0.0721 -0.49805,-0.11133 z m -153.37304,76.01758 c -0.51,0.2691 -1.01915,0.5401 -1.52735,0.8125 -2.19426,2.01272 -4.42434,4.63122 -6.38867,8.05469 -0.22337,0.38929 -0.33833,0.92325 -0.38281,1.52344 1.77277,0.93619 3.696,1.62313 5.72656,1.99804 1.22375,-2.62148 2.1538,-5.39949 3.02148,-8.21289 -0.15974,-1.62412 -0.31428,-3.01527 -0.44921,-4.17578 z" />
  <circle
     id="path64"
     style="fill:#ff0000;stroke:#000000"
     cx="82.384628"
     cy="370.23453"
     r="0.49579665" />
  <circle
     id="path66"
     style="fill:#ff0000;stroke:#000000"
     cx="127.051"
     cy="228.29475"
     r="0.49579665" />
  <path
     style="fill:#ff0000;fill-opacity:1"
     id="path68"
     d="m 139.35052,221.34225 c 1.33419,-0.80776 5.30513,-3.28113 4.00257,-2.4233 -1.50829,0.99332 -6.33755,3.38872 -4.62014,2.83002 3.25534,-1.05902 6.20108,-2.90199 9.30162,-4.35298 3.74109,-1.38706 7.40503,-3.00322 11.22325,-4.16117 12.88296,-3.907 14.06364,-3.34037 27.63235,-4.69502 10.56785,0.56406 16.49164,0.23805 26.60587,3.15071 6.19587,1.78428 13.40974,3.67305 14.32723,11.59147 1.09598,9.4589 -6.19918,16.74363 -10.84841,23.6345 -10.88958,12.50868 -23.71122,23.09108 -37.44437,32.32243 -3.40774,2.29066 -6.80945,4.63795 -10.49203,6.45411 -0.97587,0.48128 3.05687,-1.67012 2.23308,-2.38098 -1.38791,-1.19764 -3.65552,-0.28243 -5.48327,-0.42365 -1.05834,-1.20855 -2.53949,-2.15026 -3.17503,-3.62566 -1.81571,-4.21518 -1.15632,-10.83212 -0.42438,-14.95342 1.45922,-8.21635 3.30468,-11.76153 6.35301,-19.54883 0,0 -11.09789,5.1439 -11.09789,5.1439 v 0 c -3.02075,7.7613 -5.02947,11.87211 -6.62234,20.05698 -0.86593,4.44955 -1.7904,11.74341 0.18646,16.31046 0.77792,1.79722 2.58928,2.93875 3.88393,4.40812 13.10603,0.97379 5.88632,1.58064 25.2466,-9.29442 3.38263,-1.90009 6.61934,-4.05731 9.80408,-6.27313 13.52887,-9.41287 26.1338,-20.13554 37.01499,-32.5504 5.10125,-7.38487 13.26498,-15.29212 11.78837,-25.62588 -1.17087,-8.19407 -9.38784,-10.23367 -15.67328,-11.93733 -10.0333,-2.71953 -16.70007,-2.55693 -27.09921,-3.18502 -4.7669,0.38986 -9.57003,0.46527 -14.3007,1.16959 -20.31398,3.02439 -38.54493,12.83677 -55.65627,23.69633 0,0 13.33391,-5.33743 13.33391,-5.33743 z" />
  <path
     style="fill:#ff0000;fill-opacity:1"
     id="path70"
     d="m 178.80645,264.91347 c 3.89228,17.76887 4.93979,36.02463 5.89414,54.14654 1.75839,-3.74701 -1.13276,9.3847 1.58001,8.45583 5.49068,-1.88003 10.8971,-4.54048 15.28229,-8.34209 2.11407,-1.83272 2.29534,-5.1083 3.26168,-7.73401 3.75374,-10.19947 5.40499,-16.82889 8.46443,-27.53572 4.24534,-15.77528 4.06673,-14.79704 7.89465,-30.20624 1.02098,-4.10993 1.8688,-8.26431 3.00044,-12.34516 0.72541,-2.61591 5.27275,-7.51956 2.56622,-7.72898 -14.02779,-1.08538 -10.49489,9.90919 -10.00577,16.28097 1.28107,40.62937 -0.1498,81.30702 -2.62157,121.86544 -0.10258,1.07548 -1.19393,3.84437 -0.30774,3.22644 5.28859,-3.68772 10.76194,-7.62418 14.32273,-12.99904 2.30621,-3.48112 1.57259,-8.20252 2.43047,-12.28918 2.89407,-13.78642 6.28776,-27.44434 9.69978,-41.10873 -8.69333,8.62323 8.66373,-18.52632 4.22109,-15.52337 -17.78273,12.02006 -14.14461,14.37071 -19.02544,33.16646 -4.13348,15.91775 -8.74349,31.32898 -13.33762,47.11808 8.24455,12.81313 -15.99692,24.23297 -12.16056,36.45491 1.19006,3.79131 6.79565,-5.25562 7.66037,-9.1341 0.99689,-4.4713 -2.06572,-8.94407 -2.61582,-13.49201 -1.58285,-13.08639 -1.41228,-25.58798 -1.60788,-38.74054 0.30034,-18.78001 0.0996,-15.148 0.86832,-32.45295 0.0541,-1.21873 1.27533,-4.27732 0.22744,-3.6527 -5.25991,3.13534 -10.48109,6.8743 -14.01803,11.87301 -1.9928,2.81638 -1.06153,6.81814 -1.61669,10.22328 -0.66446,4.0755 -1.36142,8.14562 -2.04214,12.21843 -0.92596,7.45497 -2.8463,14.74475 -3.93588,22.17119 -0.2556,1.74214 -1.1599,3.67244 -0.41162,5.26632 0.40914,0.87149 2.10527,0.56921 2.88824,0.009 15.7783,-11.28974 13.24529,-8.97017 19.89887,-21.37451 1.24946,-2.31189 7.58534,-14.08629 9.0467,-16.59766 1.20204,-2.06571 6.17969,-6.22249 3.79369,-6.08414 -13.40411,0.77724 -9.7658,3.48971 -9.52216,8.21466 0.0758,1.47053 0.0595,2.94436 0.0893,4.41654 0.30771,3.46746 -0.83204,6.81125 -0.97569,10.23556 -0.0189,0.4513 0.005,1.57657 0.36552,1.30486 4.75313,-3.57899 9.76883,-7.0554 13.46439,-11.71846 1.57173,-1.9832 1.0921,-4.9421 1.68842,-7.40133 0.70039,-2.88843 1.4676,-5.76025 2.2014,-8.64038 -7.38498,1.26237 9.88337,-15.5105 4.56867,-15.28986 -12.5417,0.52067 -10.68608,5.52932 -10.9217,11.84702 -0.1028,2.75644 -0.21859,5.51364 -0.42968,8.26391 -0.22938,2.98866 -0.59424,5.96538 -0.89137,8.94807 -0.0448,0.36071 -1.6624,13.96981 -2.06111,15.14256 -0.14869,0.43733 -1.68469,0.56386 -1.36674,0.22878 4.13624,-4.3591 10.21979,-7.16212 13.0004,-12.48926 2.04491,-3.91767 0.15128,-8.84048 0.43507,-13.25061 0.34732,-5.39743 0.97166,-10.77345 1.45749,-16.16018 3.53695,-30.67666 0.0984,-2.23326 3.80117,-29.49424 0.28452,-2.09473 2.8236,-6.5982 0.73083,-6.29964 -14.57118,2.07873 -13.90699,6.68919 -16.95393,16.09624 -1.10417,3.409 -2.23817,6.80825 -3.35726,10.21238 -4.27293,11.72476 -7.6422,23.79017 -12.05058,35.46663 -0.46849,1.2409 -2.84984,4.05107 -1.58568,3.64958 4.73606,-1.50415 8.67348,-4.85198 13.01022,-7.27796 1.76603,-7.88412 4.3494,-15.68273 7.66918,-23.05807 0.7082,-1.57336 4.02853,-5.08848 2.37378,-4.5998 -4.08165,1.2054 -7.09938,4.69578 -10.64908,7.04366 0.16401,14.59146 -1.86871,29.12889 -3.97942,43.53874 -0.26073,1.23245 -1.98471,4.07269 -0.78219,3.69735 4.78732,-1.49427 9.20447,-4.27861 13.03086,-7.52053 0.99553,-0.84347 0.24216,-2.59975 0.43675,-3.88996 0.75833,-5.02778 1.90839,-10.00692 2.94055,-14.98317 0.12548,-0.80618 1.15935,-2.64821 0.37644,-2.41855 -4.82629,1.41576 -9.46979,3.60356 -13.69861,6.32653 -0.83481,0.53754 -0.38177,1.95057 -0.6434,2.90838 -1.06057,3.88254 -2.4134,7.7149 -3.74051,11.51238 3.68555,-2.34186 7.71356,-4.21643 11.05665,-7.02558 0.58251,-0.48948 0.0117,-1.52168 0.0206,-2.28249 0.0298,-2.54655 -0.0851,-5.09926 0.0955,-7.63957 0.90461,-12.72225 3.71764,-25.11186 6.41265,-37.53906 0.8886,-3.75551 3.40392,-15.32457 5.14156,-19.69658 0.24806,-0.62412 1.89246,-1.90635 1.40851,-1.44068 -4.67385,4.49735 -10.68184,7.95053 -13.97883,13.53631 -2.45293,4.15577 -1.5221,9.53226 -2.43434,14.27094 -1.1075,5.75302 -2.41584,11.46554 -3.62376,17.19831 -3.41277,14.7514 -7.01652,29.45961 -10.79891,44.12064 -0.81045,3.14143 -1.4942,6.32096 -2.48451,9.4104 -0.45626,1.4234 -3.17073,4.7736 -1.84239,4.08824 4.79411,-2.47355 8.59248,-6.5251 12.88873,-9.78764 0.54085,-4.09729 0.9519,-8.21381 1.62256,-12.29187 0.98281,-5.9761 2.16287,-11.91858 3.33612,-17.86023 4.38696,-22.21674 9.57031,-44.256 15.01951,-66.23225 0.66789,-2.4975 1.33577,-4.995 2.00366,-7.49251 0.0651,-0.6437 0.74126,-2.27846 0.19542,-1.93111 -5.18464,3.29934 -10.68866,6.47926 -14.68233,11.1501 -2.13221,2.49376 -1.91346,6.27695 -2.89502,9.40771 -3.75099,11.96406 -4.29769,13.48593 -8.26912,25.57361 -3.497,10.18117 -6.88243,20.40229 -10.42724,30.5671 -0.70165,2.01201 -1.14338,4.14398 -2.16066,6.01631 -0.28054,0.51634 -2.03464,1.16893 -1.55717,0.82641 4.33652,-3.11086 8.76387,-6.09311 13.1458,-9.13967 0.39374,-6.13586 1.26505,-12.23219 2.22394,-18.30141 0.28594,-1.80988 0.7151,-3.59871 0.91838,-5.41973 0.0664,-0.59502 0.42078,-2.06317 -0.11329,-1.79256 -5.1039,2.58606 -9.66327,6.12954 -14.49491,9.19431 -0.67776,1.7744 -1.34792,3.55172 -2.03329,5.32319 -1.65684,4.28239 -3.30193,8.56961 -5.01006,12.83181 -0.72184,1.80116 -4.15542,5.57805 -2.22521,5.3792 12.55642,-1.29354 12.09097,-3.55858 14.03347,-10.58188 0.67344,-2.02165 1.32936,-4.04922 2.02031,-6.06495 1.98489,-5.7906 4.0576,-11.55383 6.18837,-17.29216 0.29415,-0.79218 1.68298,-2.6615 0.88819,-2.37443 -4.88531,1.76457 -9.25784,4.71299 -13.88676,7.06948 -3.92431,10.67089 -7.76808,21.38658 -12.16493,31.87515 -0.33667,0.49763 -1.541,1.77401 -1.01001,1.49289 4.67577,-2.47555 9.69682,-4.60501 13.6111,-8.16443 1.38875,-1.26284 0.87322,-3.65194 1.37303,-5.46124 0.74977,-2.71413 1.54037,-5.41738 2.37504,-8.10661 1.61371,-5.19921 3.86633,-11.72035 5.62795,-16.90389 0.70322,-2.15226 1.40645,-4.30451 2.10968,-6.45676 0.0563,-0.47051 0.56247,-1.67525 0.16879,-1.41152 -5.12506,3.43325 -10.5786,6.63269 -14.74865,11.17847 -1.89478,2.0655 -1.86766,5.28567 -2.78448,7.93444 -3.18955,9.2149 -3.43292,10.04863 -6.52822,19.37419 -2.62169,7.80946 -5.14196,15.65001 -7.57249,23.52056 -0.50947,1.64975 -0.96125,3.31859 -1.53247,4.94799 -0.19115,0.54527 -1.21226,1.90938 -0.74998,1.56275 4.91196,-3.68305 9.49453,-7.78607 14.24179,-11.6791 3.25399,-15.00385 7.78622,-29.68615 11.98072,-44.44299 2.63694,-9.27709 1.78096,-5.667 3.21402,-12.50345 -4.81615,2.32032 -10.15666,3.77351 -14.44844,6.96095 -1.65635,1.23015 -1.67962,3.76911 -2.53018,5.64882 -1.17535,2.59745 -2.36502,5.1884 -3.54753,7.78261 -3.35933,7.36976 -6.65107,14.76281 -10.15291,22.06594 4.21231,-2.62427 9.12464,-4.3665 12.63691,-7.87281 1.56171,-1.55906 1.05114,-4.2878 1.66699,-6.40683 0.87073,-2.99607 1.81682,-5.97027 2.79149,-8.93415 2.74462,-8.34623 5.81253,-16.58921 8.78263,-24.85678 0.27462,-0.566 1.3625,-2.02299 0.82385,-1.698 -4.96197,2.9938 -10.33486,5.64686 -14.32864,9.84611 -1.91066,2.00896 -1.68675,5.28229 -2.56158,7.91311 -1.25973,3.78829 -2.53678,7.57093 -3.84193,11.34381 -3.26328,9.43332 -4.94772,13.97066 -8.31183,23.2411 -1.16099,3.2237 -2.32199,6.44741 -3.48298,9.67112 0,0 11.19936,-5.24651 11.19936,-5.24651 v 0 c 1.03557,-3.16083 2.07115,-6.32166 3.10672,-9.48249 4.05856,-11.7246 8.13265,-23.41005 12.86475,-34.88557 1.16155,-2.8168 6.04238,-6.52035 3.63432,-8.38712 -21.24268,-16.46775 -12.33163,0.47807 -10.93605,3.23719 -3.57607,11.37355 -7.48949,22.628 -11.59385,33.82191 -0.88868,2.42372 -5.16093,6.43932 -2.71146,7.25434 4.09836,1.36366 8.20304,-2.70826 12.30455,-4.06239 3.12168,-7.31887 6.177,-14.668 9.68501,-21.81439 1.31385,-2.67655 2.6024,-5.37184 4.10272,-7.9485 1.13011,-1.94085 6.00149,-5.28571 3.77506,-5.58081 -4.05611,-0.53761 -7.59453,3.0475 -11.3918,4.57125 0.0128,1.18777 0.22167,2.38971 0.0383,3.5633 -0.46476,2.97373 -3.91488,16.09793 -4.46536,18.15459 -3.13145,11.69944 -6.4628,23.35634 -10.42736,34.80452 3.66669,-0.11768 7.36545,0.14494 11.00008,-0.35304 0.37906,-0.0519 -0.12656,-0.77046 -0.0557,-1.14645 0.30251,-1.60617 0.76094,-3.17918 1.16854,-4.76195 2.00004,-7.76639 4.28277,-15.45659 6.76876,-23.08109 2.55168,-7.57978 3.93893,-12.0682 6.93107,-19.48862 1.12043,-2.77864 5.75641,-6.16241 3.59547,-8.23764 -2.5436,-2.4427 -6.9665,1.10221 -10.44938,1.6556 -0.23407,0.0372 0.74069,-0.34096 0.7029,-0.10699 -0.34245,2.12008 -1.12657,4.14475 -1.68985,6.21712 -2.74143,8.47726 -5.54568,16.92312 -8.57489,25.30299 -0.71752,1.98491 -4.28007,5.55194 -2.20462,5.93566 11.33366,2.0954 11.59853,-0.42683 12.89026,-5.34656 3.12948,-9.2208 6.54124,-19.08131 10.77794,-27.82533 0.66851,-1.37971 1.46584,-2.6932 2.19876,-4.0398 -4.13228,1.63744 -8.49132,2.79008 -12.39684,4.91232 -0.58546,0.31814 -0.10956,1.33565 -0.28442,1.97861 -0.43987,1.61735 -1.02606,3.19135 -1.55428,4.78203 -2.08057,6.26539 -4.25927,12.50131 -6.76711,18.61086 -2.84901,6.56083 -6.30749,11.63493 10.62591,-0.88273 1.50739,-1.1143 1.30145,-3.516 1.96985,-5.26733 2.37251,-6.2165 4.78224,-12.44144 7.93996,-18.31304 -3.70628,1.17514 -7.52169,2.04964 -11.11885,3.52541 -0.3181,0.1305 0.71485,0.3986 0.71608,0.74243 0.006,1.78766 -0.45308,3.54657 -0.69449,5.31787 -0.85589,6.27985 -1.81049,12.54575 -2.88263,18.79244 4.30335,-0.9354 8.67497,-1.59876 12.91005,-2.80621 0.29982,-0.0855 0.0822,-0.6199 0.16302,-0.92101 0.51887,-1.93245 1.08174,-3.85285 1.63507,-5.77572 2.89301,-10.05345 5.95203,-20.05831 9.24118,-29.98996 3.55657,-10.59407 5.08061,-15.52312 9.08894,-25.92433 1.27601,-3.31113 6.19286,-7.02303 4.04447,-9.84726 -2.1284,-2.79796 -7.01826,0.66211 -10.44944,1.42741 -0.36149,0.0806 0.56799,0.47549 0.85199,0.71324 -0.28338,2.30178 -0.56676,4.60356 -0.85015,6.90534 -6.26764,32.7084 -12.85083,65.41052 -21.87819,97.48741 4.05623,-0.78478 8.42515,-0.60656 12.1687,-2.35434 1.09873,-0.51298 0.34552,-2.40118 0.56958,-3.59288 0.57095,-3.03656 1.19551,-6.06284 1.81507,-9.08985 2.98106,-14.56468 6.1802,-29.08415 9.60503,-43.55111 1.41393,-5.8345 2.76404,-11.68483 4.24179,-17.50349 1.28,-5.04004 5.98822,-10.25276 4.03089,-15.07037 -1.38884,-3.41836 -7.23484,-1.54907 -10.9111,-1.86395 -0.32902,-0.0282 0.3222,0.62632 0.2718,0.95268 -0.99816,6.46321 -3.13732,12.72005 -4.01499,19.20428 -2.68136,12.70622 -5.58683,25.41505 -7.49119,38.26946 -0.41153,2.77782 -0.95062,5.56356 -0.94117,8.37168 0.006,1.68824 -0.66082,5.33908 0.98609,4.96781 4.96726,-1.11977 8.63069,-5.4057 12.94604,-8.10854 1.20429,-3.8417 2.25729,-7.87052 3.95981,-11.53046 0.40169,-0.86352 2.3817,-2.708 1.46393,-2.45361 -13.48857,3.73879 -12.95146,1.2486 -12.72814,7.60816 -0.86165,5.04513 -1.85259,10.05177 -3.03351,15.03359 -0.33535,1.41471 -2.52175,4.33409 -1.07171,4.22803 4.52212,-0.33075 8.84347,-2.56543 12.62133,-5.07277 0.947,-0.62851 0.10285,-2.27086 0.15427,-3.40629 0.69844,-7.67894 1.4794,-15.34517 2.33524,-23.00841 0.0227,-0.20358 1.90531,-16.52927 1.92669,-17.31251 0.0542,-1.98464 -0.33328,-3.95675 -0.49992,-5.93512 -4.48954,2.4056 -9.41377,4.13442 -13.46862,7.21679 -1.30574,0.99259 -1.3442,2.99309 -1.96145,4.51269 -3.20278,7.88492 -5.97671,15.94312 -8.77639,23.97653 4.24734,-1.70333 8.85651,-2.69257 12.74204,-5.11 0.98759,-0.61444 0.58021,-2.25292 0.893,-3.37321 0.587,-2.10241 1.18886,-4.20072 1.80623,-6.29441 2.84394,-9.64454 5.89578,-19.22869 9.31012,-28.68814 1.307,-3.47178 2.47446,-6.99934 3.92101,-10.41533 1.15699,-2.73217 6.31229,-6.30868 3.88161,-8.01022 -3.00868,-2.10615 -7.76041,0.92454 -10.48383,3.38849 -1.32807,1.20156 0.92346,3.50987 0.88011,5.3003 -0.0547,2.25983 -3.05342,28.59999 -3.11767,29.17535 -0.68291,5.4929 -1.32902,10.99049 -2.04872,16.47868 -0.61609,4.69812 -4.66438,10.18968 -1.95855,14.07947 2.37852,3.41927 8.29269,0.84738 12.45473,1.00939 0.23704,0.009 -0.46742,-0.30539 -0.46059,-0.54251 0.0641,-2.22564 0.43828,-4.43152 0.66768,-6.64623 0.28562,-2.75739 0.58491,-5.51335 0.87736,-8.27002 0.33424,-3.01164 0.66612,-6.02355 1.00271,-9.03492 0.32226,-2.88317 0.78745,-5.75358 0.97384,-8.64871 0.14999,-2.32983 2.36837,-6.97919 0.0339,-7.00387 -12.75268,-0.13482 -12.72689,5.95493 -14.78547,13.52779 -0.76571,2.81678 -1.52337,5.63574 -2.28506,8.4536 -0.82161,2.92064 -1.60391,5.85261 -2.46483,8.7619 -0.76685,2.59134 -4.7624,6.39414 -2.41798,7.73832 11.8014,6.76632 11.03345,-3.45749 11.31004,-6.44589 0.16969,-1.83349 0.31436,-3.66922 0.47154,-5.50382 0.0411,-1.65235 0.34564,-3.3192 0.12331,-4.95703 -0.18227,-1.34273 -0.007,-4.18669 -1.31822,-3.84547 -5.05281,1.31474 -9.5571,4.45526 -13.62128,7.73273 -1.76151,1.42052 -2.23345,3.93664 -3.31445,5.92467 -1.41897,2.60959 -2.79004,5.24495 -4.18506,7.86743 -1.58408,2.88541 -3.16815,5.77082 -4.75223,8.65623 -9.20311,15.52895 -5.85511,4.90554 2.58412,7.32351 1.03262,0.29586 -0.89253,3.31688 -1.76785,2.69428 -1.22005,-0.8678 -0.76597,-2.94401 -0.68509,-4.43901 0.13829,-2.55608 3.17509,-20.27786 3.44687,-21.90761 0.82399,-4.13127 1.54066,-8.28541 2.47198,-12.39382 2.25991,-9.96933 7.7101,-14.7678 -7.77974,-9.93842 -0.90828,0.28318 1.95984,0.99971 2.09178,1.94192 1.47337,10.52136 -1.4063,21.37303 0.33868,31.87026 0.0599,5.74528 0.31793,33.62048 0.50804,39.43723 0.16839,5.15234 -3.06459,12.08158 0.84453,15.4422 3.59931,3.09428 10.54472,0.57731 13.98209,-2.69594 8.92756,-8.5013 -0.59792,-28.29466 10.1691,-35.55771 5.32061,-18.30379 8.38691,-29.45032 14.3674,-47.60078 2.19017,-6.64705 7.54994,-12.84857 6.92876,-19.81953 -0.28251,-3.17031 -5.86754,-3.88695 -8.9833,-3.23678 -4.88803,1.01998 6.65814,17.14551 -2.66992,14.74009 -3.00226,13.72551 -5.95324,27.49212 -9.62787,41.05808 -1.16701,4.30833 -5.68476,8.80214 -3.78948,12.84337 1.12738,2.40387 15.27091,1.78249 7.91305,-0.91096 -0.37831,-40.81039 0.55929,-81.63611 3.45812,-122.35346 0.23373,-10.76653 3.98611,-21.67776 -12.57445,-5.13043 -1.74823,1.74683 -0.98176,4.84429 -1.4776,7.26542 -2.89654,14.14335 -5.92729,28.26845 -10.13609,42.09498 -3.32506,10.27997 -5.52963,18.47044 -10.21424,28.11113 -1.31997,2.71642 -7.18575,6.03703 -4.69694,7.7479 2.97803,2.04718 7.07099,-2.02151 10.04895,-4.06879 2.10357,-1.44615 -13.16955,-4.99274 -2.30189,-7.30401 -1.92622,-18.25316 -3.8204,-36.51521 -4.89273,-54.84285 0,0 -12.5789,6.71042 -12.5789,6.71042 z" />
  <path
     style="fill:#ff0000;fill-opacity:1"
     id="path74"
     d="m 146.37391,85.014053 c -0.56348,2.571972 -1.27937,5.11523 -1.69044,7.715917 -1.34813,8.52916 -1.84373,17.27703 -2.18483,25.88433 -0.44002,11.10317 -0.4854,20.38821 -0.18449,31.49735 0.13204,4.87476 0.42507,9.74382 0.63761,14.61573 0.45427,3.92366 0.77332,7.86535 1.36282,11.77099 0.45049,2.98471 1.55463,9.46135 3.30938,12.68567 0.2866,0.52661 0.80292,1.08683 1.40106,1.12791 5.36641,0.36852 10.81267,0.84197 16.13697,0.0765 0.91255,-0.13121 0.71336,-1.70028 1.07004,-2.55042 1.06251,-2.20573 2.2835,-4.34191 3.18751,-6.6172 9.891,-24.89453 15.51641,-53.8102 17.28494,-80.41804 0.50472,-7.593525 0.24002,-15.218665 0.36003,-22.827996 -1.01902,-10.354697 -0.88005,-19.049236 -4.74997,-28.628416 -0.75115,-1.85932 -1.53798,-4.291532 -3.43623,-4.938017 -5.4908,-1.869994 -11.58532,-3.255561 -17.27252,-2.114732 -1.26785,0.254325 -4.90296,10.845895 -5.31639,11.968594 -5.13129,19.923403 1.6074,-6.465181 -2.35531,9.662883 -0.16288,0.662885 -0.11139,1.459354 -0.56685,1.96779 -0.22696,0.253365 0.006,-1.006756 -0.33127,-0.965205 -1.81215,0.22303 -3.56941,0.875579 -5.2234,1.648843 -3.59296,1.679757 -6.96994,3.787319 -10.4549,5.680979 -4.14227,3.314322 -8.55573,6.315594 -12.42682,9.942967 -11.93474,11.183362 -22.04354,25.05212 -28.06745,40.33479 -3.500117,8.87981 -3.286905,12.51436 -4.192697,21.56814 0.209628,7.52887 1.349145,14.9631 5.860217,21.22047 1.02901,1.42735 2.21016,2.79527 3.63475,3.8281 1.75646,1.27343 3.60906,2.94333 5.77793,2.99607 4.11218,0.1 8.04754,-1.70802 12.07131,-2.56203 7.68479,-6.83089 12.63352,-10.86811 19.73068,-19.45711 5.24709,-6.35005 10.14099,-13.00165 14.73029,-19.84222 12.19881,-18.1829 20.87059,-33.559665 29.50514,-53.717045 3.4914,-8.150695 6.06527,-16.664556 9.09791,-24.996833 2.22256,-9.485988 6.21735,-20.764674 4.80168,-31.025492 -0.28901,-2.094762 -0.82984,-4.849212 -2.76057,-5.711673 -6.08146,-2.716632 -12.89284,-4.8476634 -19.52605,-4.243845 -2.12369,0.19332 -16.09447,14.96184 -16.59728,15.473546 -2.43443,2.803737 -13.93829,16.075002 -16.42905,18.855017 -3.03274,3.384948 -6.23933,6.614033 -9.20989,10.053683 -5.77346,6.685174 -11.58637,14.03849 -16.24195,21.574722 -1.96842,3.186399 -3.54205,6.600397 -5.31307,9.900595 -3.58788,8.591472 -6.01417,17.560305 -2.8507,26.673415 1.31046,3.7751 2.50926,4.91615 4.80232,7.97558 7.20728,7.18004 13.26168,9.11176 23.7967,5.34046 6.2438,-2.23513 11.34896,-8.53825 15.7156,-12.98736 2.23314,-3.41001 4.7978,-6.62464 6.69942,-10.23004 5.27525,-10.001702 10.52579,-24.417068 2.91098,-34.976054 -2.72709,-3.781485 -6.46588,-7.45965 -10.96457,-8.683786 -6.64126,-1.807154 -13.76538,0.05445 -20.64808,0.08167 -5.51423,2.572964 -11.40827,4.453227 -16.5427,7.718891 -22.244221,14.148058 -38.179544,35.687979 -50.056093,58.839339 -4.756942,9.27288 -9.124274,18.78983 -12.590749,28.61826 -3.583654,10.16068 -5.667682,20.78954 -8.501523,31.18431 -1.008622,9.87091 -2.792173,19.69318 -3.025866,29.61273 -0.328404,13.93971 1.476125,29.6887 6.822083,42.83086 2.480515,6.09794 8.934592,16.24375 16.037949,18.70652 4.971229,1.72355 10.470246,1.05304 15.705368,1.57957 7.837039,-4.71383 8.374849,-3.95159 13.669712,-10.98061 3.000785,-3.98359 4.183929,-7.66765 6.804719,-11.84473 1.56469,-2.49385 3.40634,-4.80392 5.03571,-7.256 2.62244,-3.94659 5.1454,-7.95839 7.7181,-11.93758 2.95337,-5.8734 6.37202,-11.53509 8.86011,-17.62021 5.67386,-13.87649 9.40347,-27.91434 10.84129,-42.85138 1.05095,-10.91789 0.84668,-23.08776 -3.04917,-33.59462 -1.39506,-3.76236 -4.04724,-6.93007 -6.07086,-10.39511 -3.26246,-2.2655 -5.85968,-6.20543 -9.78737,-6.7965 -15.2364,-2.2929 -22.651782,3.13985 -32.405311,13.19548 -10.484526,10.80927 -18.676321,24.03454 -25.019246,37.59345 -3.589649,7.67338 -6.101688,15.80617 -9.152532,23.70926 -1.929384,7.97316 -4.360454,15.84139 -5.788153,23.91948 -2.216305,12.5401 -3.329914,29.54574 -2.041936,42.41402 0.906838,9.06028 3.599871,19.71994 8.344901,27.73645 1.750866,2.95801 4.384366,5.29517 6.57655,7.94275 8.653815,5.1937 9.006222,7.05203 20.83257,5.59306 2.362834,-0.29149 4.334784,-1.99239 6.378259,-3.21393 3.618992,-2.16335 6.520166,-5.15314 9.210749,-8.32924 0.888021,-1.6788 2.102834,-3.22202 2.664062,-5.0364 2.682711,-8.67286 -0.631034,-18.65558 -5.502068,-25.87117 -1.123668,-1.66452 -2.551143,-3.10237 -3.826715,-4.65356 -1.330038,-1.09668 -2.521035,-2.38809 -3.990115,-3.29004 -6.699549,-4.11323 -10.674406,-3.82052 -18.907947,1.89423 -2.645602,1.83626 -3.538163,5.42057 -4.806913,8.38053 -3.510166,8.18911 -4.000158,14.6248 -5.492409,23.43915 -1.957185,14.4507 -1.926686,29.22019 1.412072,43.48686 1.298854,5.55007 3.570195,12.03568 7.228576,16.65414 1.34961,1.70379 3.20259,2.93953 4.803885,4.4093 5.12894,-0.36744 10.695805,1.00373 15.386821,-1.10232 2.854961,-1.28174 3.598054,-5.16209 4.902649,-8.00668 4.058987,-8.85038 5.28544,-21.10646 4.858306,-30.70865 -0.152376,-3.42549 -0.80927,-6.80984 -1.213905,-10.21475 -0.753609,-2.64799 -1.284838,-5.36963 -2.260826,-7.94397 -2.861038,-7.54649 -8.378619,-13.80713 -17.657995,-13.28407 -3.87279,0.21831 -6.995253,5.56722 -8.942871,8.34632 -4.316001,8.18309 -7.131615,17.1574 -7.597981,26.44376 -0.310129,6.17535 -1.494887,5.34099 1.840481,6.13402 5.554771,-0.91081 11.823382,0.13994 16.664313,-2.73242 2.361775,-1.40135 1.288209,-5.35588 1.571058,-8.0875 1.184664,-11.44092 0.365191,-23.544 -2.206517,-34.74817 -0.671452,-2.92531 -1.784381,-5.73143 -2.676571,-8.59714 -1.07347,-1.76729 -1.26255,-4.63671 -3.220411,-5.30187 -5.765883,-1.95887 -12.468438,-4.1205 -18.162892,-1.96278 -4.532967,1.71762 -6.022259,7.66979 -8.254426,11.97274 -5.080211,9.79314 -8.401388,23.1791 -10.105331,33.86946 -0.98842,6.20125 -1.210195,12.50061 -1.815292,18.75091 -0.08101,15.0163 0.801975,30.63565 8.05765,44.2052 2.947757,5.5129 7.52087,10.90747 13.311342,13.6577 2.502211,1.18844 5.372578,1.35249 8.058866,2.02874 3.949886,-1.18428 8.207922,-1.61845 11.849658,-3.55284 1.982905,-1.05327 2.875001,-3.45329 4.41547,-5.08677 2.177265,-2.30872 4.558183,-4.41982 6.731025,-6.7327 9.696359,-10.32131 15.696134,-17.10694 23.8789,-29.34579 4.23677,-6.33687 7.81083,-13.09258 11.71625,-19.63887 6.31579,-13.07106 10.33936,-19.84335 14.3529,-33.27001 0.8286,-2.77195 4.27415,-7.54773 1.55606,-8.5388 -22.52391,-8.2127 -24.03142,24.26931 -26.2871,35.20349 -3.24796,22.72327 -5.01374,45.8222 -2.99664,68.75514 0.37248,4.23484 0.37505,8.66436 1.98806,12.59764 0.72907,1.77782 2.7055,3.78149 4.60186,3.47168 7.92503,-1.29471 15.16296,-5.29283 22.74444,-7.93924 3.52399,-7.83708 7.79895,-15.37806 10.57199,-23.51124 6.23538,-18.28807 10.9394,-44.11835 13.05238,-63.21308 0.85099,-7.69028 3.36279,-37.68293 -0.3446,-47.70269 -1.33418,-3.60582 -5.52577,-5.34732 -8.28866,-8.02097 -8.61253,2.40662 -18.58734,1.98524 -25.8376,7.21985 -6.37402,4.60198 -8.72184,13.13913 -12.15598,20.21111 -4.09698,8.43696 -7.42951,17.25097 -10.361742,26.15992 -5.252304,15.95797 -9.037942,33.30912 -10.427907,50.11206 -0.440691,5.3274 0.04708,10.6911 0.07062,16.03666 0.919882,2.43875 0.362356,6.29317 2.759647,7.31624 5.721613,2.44177 12.434112,2.77356 18.576602,1.78925 2.21308,-0.35464 3.03826,-3.38095 3.99744,-5.40665 1.6648,-3.51591 4.34089,-12.70572 2.66867,-16.92021 -1.22348,-3.08353 -4.19812,-5.13769 -6.29719,-7.70654 -6.03378,1.66024 -12.659832,1.88995 -18.101344,4.98072 -3.2386,1.83952 -4.678944,5.82869 -6.574219,9.03499 -5.180434,8.76388 -8.985361,19.89554 -9.937364,30.0811 -0.12771,1.36637 0.217576,2.73602 0.326365,4.10404 4.891592,-1.22813 10.056096,-1.6586 14.674777,-3.68437 4.052528,-1.77746 3.34735,-13.51987 3.364466,-14.24086 0.152378,-6.41876 -0.426006,-17.2087 -1.260658,-23.64709 -0.3866,-2.98217 -1.105604,-5.91176 -1.658405,-8.86764 -0.817431,-1.33618 -0.892096,-3.86938 -2.452293,-4.00855 -5.806699,-0.51799 -11.856153,0.27793 -17.344895,2.24256 -1.544298,0.55276 -1.420379,2.99065 -1.759215,4.59552 -0.810336,3.83808 -1.086377,10.3021 -0.245722,14.20842 0.367561,1.70796 1.354409,3.22096 2.031614,4.83144 6.455008,-0.0188 13.815282,3.24023 19.365026,-0.0564 7.874467,-4.67756 22.368457,-47.68991 22.789687,-49.12166 7.91762,-26.91178 12.61835,-57.39538 14.65778,-85.26642 0.99695,-13.62425 0.59707,-27.31482 0.8956,-40.97223 -1.42247,-15.57849 -1.49639,-37.75133 -8.6969,-53.08986 -6.32525,-13.47407 -20.893194,-9.8721 -31.873333,-0.31207 -8.181579,7.12342 -16.816554,46.77177 -18.584955,53.44075 -5.764733,29.21981 -9.882031,59.21169 -7.036567,89.05337 0.485081,5.08727 1.353379,10.18459 2.908163,15.05268 0.749074,2.34537 1.538145,5.58391 3.902345,6.27127 6.047713,1.75829 12.594028,0.23707 18.891041,0.35561 3.751784,-4.85154 8.103925,-9.29327 11.255352,-14.55462 11.414124,-19.05604 19.643964,-41.04324 26.999114,-61.78839 8.90732,-25.12303 15.98273,-48.51553 22.22618,-74.38725 2.40802,-9.97843 4.1788,-20.09996 6.2682,-30.14994 0.0147,-0.12286 4.6944,-27.677478 1.70255,-32.902322 -0.87411,-1.526511 -3.45055,0.690799 -5.18752,0.968748 -6.27377,1.003924 -13.99045,-1.225448 -18.84246,2.876511 -7.44242,6.291933 -18.55622,47.716433 -20.13212,52.819923 -6.49376,28.10354 -12.56355,56.80688 -12.0562,85.83845 0.0846,4.83813 0.49841,9.71774 1.6112,14.42691 0.51131,2.16377 1.04397,5.25525 3.18306,5.86157 6.0373,1.71128 12.5478,0.25046 18.8217,0.37568 2.36828,-3.94998 5.20617,-7.65398 7.10484,-11.84996 5.2578,-11.61944 12.61424,-36.40364 15.59074,-47.57359 6.14286,-23.05232 8.99311,-35.58648 11.26899,-59.0264 0.72358,-7.4524 0.66435,-14.96014 0.99653,-22.44021 -0.60304,-4.57087 2.33975,-11.70176 -1.80911,-13.7126 -18.71595,-9.071101 -26.74629,6.63838 -31.38075,19.32039 -3.75674,10.28017 -6.09895,21.05002 -8.25504,31.78065 -6.53134,32.5058 -6.79141,48.39138 -9.4687,81.65819 0.342,26.19979 -0.80524,41.26581 3.94105,66.20869 2.6519,13.93634 6.73208,32.44617 30.60392,21.80377 13.20307,-5.88611 34.05527,-54.19915 37.73292,-61.60667 19.0489,-46.06953 33.55455,-93.98906 43.00533,-142.94736 3.23317,-16.748958 7.23736,-43.259312 6.67179,-61.620447 -0.12514,-4.062904 -1.53189,-7.984028 -2.29783,-11.976043 -6.28857,8.749322 -16.99241,-1.754439 -23.76078,2.438461 -4.44786,2.755383 -4.49969,9.457845 -6.396,14.33428 -2.77097,7.125692 -5.24775,14.366289 -7.59443,21.64275 -4.10799,12.737836 -14.10392,47.875699 -17.40779,59.345669 -6.01605,27.99008 -8.46072,35.4151 -11.32156,63.04577 -0.76567,7.39498 -1.23755,14.83485 -1.234,22.26936 0.002,4.50122 0.24455,9.05834 1.25102,13.4456 0.4089,1.78242 1.10259,4.32779 2.90161,4.65602 6.12122,1.11682 12.43519,-0.48229 18.65278,-0.72343 2.58444,-4.35288 5.5468,-8.50252 7.7533,-13.05864 9.18755,-18.97098 17.37922,-41.99533 23.67784,-61.7309 9.42648,-29.53615 14.66089,-48.924 20.07854,-79.21222 1.8328,-10.246577 2.82122,-20.62636 4.23184,-30.93954 -10.24553,3.597293 7.55644,-27.112758 -2.04588,-30.09341 -24.72866,-7.676016 -29.7857,3.352879 -42.29268,20.986647 -21.61465,30.474804 -26.64674,43.853364 -44.21914,78.425703 -16.78233,40.32416 -32.55024,81.65129 -38.82896,125.14244 -2.16991,15.03048 -3.12678,32.15947 0.68075,47.23727 1.1185,4.42923 3.68939,8.35851 5.53408,12.53777 3.02006,2.76029 5.23016,6.84178 9.06016,8.28088 5.14963,1.93495 10.99314,1.98776 16.45176,1.3051 3.11882,-0.39005 5.7026,-2.69093 8.33707,-4.40521 2.83549,-1.8451 7.26763,-5.63553 9.18757,-8.78731 -3.08765,-0.0986 -6.38862,0.83623 -9.26296,-0.29582 -1.78673,-0.7037 -1.93771,-3.39075 -3.36352,-4.67709 -0.66911,-0.60367 -1.15161,1.82591 -0.9474,1.84041 5.26287,0.37361 10.7436,1.55675 15.82766,0.14621 2.03999,-0.56598 2.17994,-3.6298 3.26991,-5.4447 2.82922,-6.16902 6.16351,-12.13056 8.48768,-18.50704 3.33488,-9.14941 5.60936,-18.65126 8.45118,-27.96561 3.88881,-12.74602 8.35091,-25.3276 11.74066,-38.21532 6.42423,-24.42472 12.18878,-54.646 15.25592,-79.89022 1.18588,-9.76047 1.48906,-19.60803 2.23359,-29.41205 -0.34859,-5.9384 2.02306,-12.719276 -1.04576,-17.815196 -1.4764,-2.451624 -5.56082,1.398744 -8.24871,2.381322 -6.71929,2.456283 -15.428,2.377973 -19.94563,7.925324 -6.83027,8.38712 -8.01018,20.1151 -11.28507,30.4239 -12.4576,39.21439 -14.21135,52.88926 -22.96735,94.24282 -6.65287,40.55133 -13.79371,81.51409 -11.67922,122.80055 0.31987,6.24549 0.85033,12.55758 2.47115,18.59755 0.69034,2.57253 1.762,5.98801 4.3229,6.72032 6.23393,1.78266 12.9675,0.0521 19.45126,0.0781 1.46368,-2.52378 3.24228,-4.88951 4.39105,-7.57133 2.63243,-6.14541 4.58939,-14.87111 5.61113,-21.46154 0.39634,-2.55651 1.41114,-10.39471 0.48168,-13.79079 -0.14109,-0.51549 -0.87072,-0.61998 -1.30608,-0.92997 -4.79077,0.36379 -13.62362,-3.6545 -14.37232,1.09137 -0.72903,4.62112 9.37053,2.76192 13.92982,1.71353 3.8381,-0.88256 6.53542,-4.44247 9.45109,-7.08989 19.5923,-17.78975 33.48092,-40.22212 48.11235,-61.98577 21.00973,-31.87027 37.1621,-66.48754 48.87322,-102.77537 2.75152,-8.52577 4.81488,-17.25951 7.06534,-25.93103 1.66661,-6.42185 3.32161,-12.85156 4.68472,-19.34462 0.91721,-4.36909 1.43431,-8.8127 2.15146,-13.21904 -2.03897,-1.714046 1.7885,-8.028783 -0.61858,-10.643102 -0.35484,-0.385388 -0.93548,0.64417 -1.45656,0.590204 -4.59869,-0.476266 -10.51171,-5.507432 -13.70064,-2.15997 -2.75737,2.89444 6.84425,4.684602 10.80911,5.19525 1.75558,0.226108 2.79266,-2.175726 4.18899,-3.263589 0.47277,-1.861471 2.70436,-4.157999 1.41831,-5.584412 -3.50045,-3.882484 -8.50398,-6.547329 -13.55855,-7.880809 -2.74439,-0.724018 -5.54111,1.26407 -8.24447,2.128803 -9.20459,2.944309 -14.56898,5.251367 -22.99568,10.392699 -4.10717,2.50589 -7.92112,5.463457 -11.88168,8.195185 -4.14122,3.342071 -8.4696,6.464681 -12.42367,10.026211 -17.80361,16.03621 -33.16014,35.99328 -41.6672,58.55829 -1.76473,4.68095 -2.69607,9.63502 -4.04411,14.45253 -0.61149,8.32605 -1.84006,12.42835 0.57017,20.20838 0.72404,2.33715 1.71961,4.67337 3.25291,6.58007 1.68525,2.09566 3.60378,4.44809 6.19474,5.16834 3.69077,1.02599 7.77762,0.69476 11.48941,-0.25239 2.03422,-0.51907 3.27876,-2.6229 4.91815,-3.93436 2.32739,-2.80936 4.82349,-5.4871 6.98218,-8.42808 2.69265,-3.66843 5.08813,-7.54681 7.55178,-11.3728 3.61681,-5.61684 7.40646,-11.13491 10.68835,-16.9538 3.79991,-6.73736 7.09002,-13.75041 10.53505,-20.67595 12.90602,-25.94489 9.6265,-19.2901 20.65294,-45.43034 4.62668,-12.591775 8.06323,-20.469778 10.98704,-33.092858 0.62925,-2.716673 1.24111,-5.494112 1.18069,-8.282054 -0.0165,-0.758991 -0.66401,-1.607449 -1.39911,-1.797089 -14.39506,-3.713606 -11.28395,-5.405822 -16.93282,-1.021255 -1.32865,4.476082 -1.87343,5.270152 -1.99544,10.084306 -0.11945,4.712995 0.8797,5.121609 0.61816,10.012437 -0.32641,6.10378 -2.13803,12.338668 -3.49478,18.195131 -1.6034,5.259702 -3.09207,10.555762 -4.8102,15.779122 -5.20882,15.83553 -11.72677,32.63201 -16.44767,48.54405 -4.52768,15.26076 -9.12253,34.38814 -11.64792,50.31588 -0.89158,5.62325 -1.20374,11.32318 -1.80561,16.98476 0.20331,3.2076 -0.21109,6.5154 0.60991,9.6228 0.28225,1.06829 1.42557,1.93785 2.50585,2.17 5.77907,1.24189 11.85075,3.51579 17.60205,2.15108 4.172,-0.98996 6.71726,-5.39499 9.56778,-8.59813 10.73523,-12.0632 19.81861,-26.85945 28.68815,-40.13706 19.25339,-30.81068 17.88999,-26.51519 33.19991,-59.43012 4.29551,-9.23496 8.41347,-18.56194 12.12098,-28.04826 5.09088,-13.025896 9.19739,-25.175525 11.07673,-38.933221 0.4027,-2.947971 0.0882,-5.950044 0.13233,-8.925065 -5.21747,-6.413513 -4.92274,-7.274385 -19.71687,-5.996117 -2.06506,0.178429 -2.56768,3.268717 -3.6317,5.047531 -1.23987,2.072808 -2.14677,4.327715 -3.25874,6.471855 -3.8587,7.440469 -4.8057,8.963586 -9.12255,16.652121 -1.92387,3.53562 -3.68859,7.162605 -5.77162,10.606858 -10.69493,17.683888 -9.79566,13.142158 -20.75465,33.315168 -8.11106,14.93062 -14.56871,29.37462 -19.97213,45.48678 -2.26087,6.74155 -3.81046,13.70112 -5.71568,20.55168 -2.15249,11.44216 -4.52142,18.37345 -3.33067,29.64479 0.2699,2.55481 0.74173,5.25869 2.16683,7.39621 2.24141,3.36191 4.49586,9.03512 8.51575,8.62665 17.31473,-1.75939 28.34027,-18.8167 38.17359,-30.08752 17.60902,-24.72052 24.06273,-32.07217 38.51947,-59.89636 5.49238,-10.57092 10.32777,-21.49041 14.75356,-32.55038 5.1018,-12.74926 11.45905,-31.728192 12.85638,-46.245297 0.3311,-3.439819 -0.58865,-6.886319 -0.88297,-10.329479 -7.0935,-5.745012 -8.06414,-7.688822 -22.79353,-3.645006 -3.00563,0.825168 -3.8574,4.91746 -5.46088,7.590211 -6.40984,10.684236 -10.32441,19.782685 -14.21036,31.854957 -2.31309,7.185944 -3.9473,14.572964 -5.92094,21.859454 -6.49265,24.96733 -8.7329,50.66751 -10.07165,76.33743 -0.84829,16.26578 -1.27979,28.99704 -0.55471,45.14902 0.26032,5.79887 0.93599,11.57162 1.40399,17.35743 1.43794,7.54069 1.74489,12.96221 5.08131,19.61091 0.62114,1.23778 1.20405,2.97816 2.5568,3.27472 5.38286,1.18008 11.11667,2.04869 16.50731,0.90467 1.73865,-0.36899 1.33487,-3.30194 2.17331,-4.86913 1.34381,-2.51183 2.90867,-4.89899 4.36301,-7.34848 19.17013,-36.18356 31.07811,-75.90764 37.49211,-116.26886 1.13745,-7.15762 1.76558,-14.38694 2.64838,-21.58041 0.35894,-6.03056 1.67185,-18.43553 0.47489,-25.44665 -0.21748,-1.27385 -0.49216,-3.18498 -1.75557,-3.45656 -5.53629,-1.19006 -11.64146,-2.462817 -16.97868,-0.57049 -6.62176,2.34777 -15.78027,27.99477 -16.19414,28.93819 -10.19851,28.46956 -16.84174,58.10122 -19.98346,88.17978 -1.0533,10.08416 -1.5215,20.22765 -1.82934,30.362 -0.29789,9.80693 -0.48252,19.63542 0.013,29.43436 0.43865,8.67443 1.85701,17.27148 2.78551,25.90722 1.74904,6.63791 2.90915,13.45967 5.24712,19.91373 4.87605,13.46056 14.29048,26.33004 31.50476,18.93261 4.47606,-1.92348 17.17388,-27.5182 17.75911,-28.6047 4.10368,-9.12567 8.77191,-18.01791 12.31103,-27.37699 7.7812,-20.5771 14.26302,-45.33928 18.2529,-66.94679 2.97916,-16.13384 5.46213,-36.32461 4.759,-53.11811 -0.19986,-4.77339 -1.46753,-9.44179 -2.2013,-14.16268 -5.62321,-8.74004 -5.9355,-12.75686 -22.90038,-7.03649 -3.35036,1.12971 -3.70332,6.04343 -5.18239,9.25489 -2.18019,4.73378 -3.99963,9.62961 -5.77228,14.5306 -8.249,22.80661 -8.52507,26.04366 -15.54111,51.55019 -2.84988,12.91509 -6.43799,25.68915 -8.54965,38.74528 -3.88311,24.00888 -5.58037,52.62401 -4.70067,77.06459 0.50999,14.1688 2.37286,33.45855 7.60552,47.45251 1.24943,3.34142 3.74602,6.07223 5.61903,9.10834 5.43639,2.07477 10.98419,8.57026 16.30918,6.2243 9.99076,-4.4015 18.5823,-37.12221 20.15635,-44.02993 5.47362,-24.02095 8.22945,-51.05027 8.76146,-75.53584 0.29411,-13.53594 -0.71226,-27.06889 -1.0684,-40.60334 -1.55347,-31.79383 -4.50288,-64.30772 -16.97246,-94.005 -0.27304,-0.65026 -7.72088,-16.7792 -12.87218,-17.49694 -5.92816,-0.82598 -11.92255,1.07416 -17.88382,1.61124 -1.88967,6.09332 -2.44923,5.76569 -2.09784,11.65275 0.0858,1.43718 -0.71382,4.71804 0.65422,4.26937 2.05349,-0.67348 1.29709,-4.79948 3.31565,-5.57136 14.01289,-5.35844 13.45106,5.5174 12.2768,-5.66047 -1.57465,-7.43402 -3.13641,-15.34928 -7.63637,-21.68184 -0.69503,-0.9781 -1.17346,-2.5884 -2.36697,-2.71204 -5.40658,-0.56006 -10.85858,0.51973 -16.28788,0.7796 -1.64119,2.46466 -3.50301,4.7959 -4.92357,7.39399 -9.67745,17.69925 -13.95386,41.09423 -15.73075,60.91814 -0.56168,6.26639 -0.64027,12.56672 -0.9604,18.85008 0.68225,20.03239 2.64263,40.8021 12.15735,58.85785 4.72679,8.96987 7.25282,10.96383 13.76889,18.29107 2.4974,2.50177 5.1629,4.84631 7.49218,7.50531 2.71398,3.09813 5.0518,6.50676 7.61008,9.73466 2.85521,3.60256 5.73842,7.18292 8.63006,10.75629 7.24818,8.95699 14.51663,17.87581 21.59231,26.97023 0.99545,1.47179 1.98398,2.9483 2.98636,4.41538 0.29532,0.43223 0.51688,1.63183 0.9066,1.28234 5.06349,-4.54089 -5.98367,-0.88599 2.62704,-5.88756 2.01649,-1.17129 6.38448,0.25561 2.98766,-0.7285 -8.20301,-2.32986 -7.31921,-3.286 -16.9763,5.47506 -1.3426,1.21803 -1.50645,3.30707 -2.05805,5.0339 -1.17741,3.68604 -1.72175,7.84101 -2.35122,11.63413 -0.65093,5.16233 -2.00711,10.41734 -1.67051,15.66938 0.0656,1.0232 -0.37586,2.79767 0.62693,3.01133 18.56468,3.95556 15.4077,4.5117 21.56395,-6.39156 2.11091,-4.18312 4.4475,-8.2598 6.33274,-12.54935 5.11371,-11.63541 9.31697,-24.31727 12.92893,-36.46291 3.19107,-10.73034 7.30527,-26.39578 9.34796,-37.56111 0.91752,-5.0152 1.37085,-10.10431 2.05628,-15.15647 1.70321,-12.78714 2.84537,-25.71459 1.49875,-38.59968 -1.02753,-9.83196 -3.8434,-19.27822 -6.52247,-28.74416 -1.16753,-10.29775 -3.84078,-20.26969 -7.44332,-29.95994 -1.93817,-5.21335 -4.27212,-10.29255 -6.43979,-15.41359 -0.29465,-0.77814 -0.55903,-1.56841 -0.88396,-2.3344 -1.43518,-3.38326 -0.23641,3.56084 -4.12914,4.17858 -23.69151,3.75963 -11.23012,-11.4567 -22.28272,10.0489 -10.42489,27.14045 -18.5445,55.66014 -19.02026,84.96186 -0.2891,17.80554 1.71103,23.30406 5.14925,39.82912 1.82957,4.02044 3.16136,8.30703 5.48871,12.06131 4.03663,6.51152 12.23482,12.39507 20.58273,10.88718 4.09586,-0.73983 6.59786,-5.17515 9.26641,-8.36925 5.26042,-6.29641 9.55667,-17.43722 12.72684,-24.47138 3.14981,-7.47847 6.79389,-14.76748 9.44942,-22.4354 6.14118,-17.73283 10.8763,-38.58881 13.25536,-57.15866 1.91357,-14.9365 2.60853,-32.96576 0.88054,-48.16979 -0.55514,-4.88451 -2.06156,-9.61334 -3.09234,-14.42001 -1.66664,-3.07378 -6.74555,-14.71026 -12.01044,-14.28053 -12.16691,0.99308 -16.64513,9.93616 -20.88787,18.8862 -6.57061,13.86066 -6.92176,17.45784 -11.32498,32.59811 -4.06721,18.03224 -4.00963,16.13459 -6.61454,33.80974 -1.4942,10.13868 -1.60748,15.27951 -3.7119,25.0739 -1.24694,5.80353 -4.28724,15.76043 -5.95931,21.45045 -4.49536,12.9558 -7.57162,26.45766 -7.71598,40.22344 -0.0623,5.94107 0.47325,9.4432 1.09289,15.27059 0.32034,2.28162 0.60936,4.56785 0.96102,6.84486 0.32812,2.12458 0.79743,4.22719 1.07813,6.35856 1.14427,8.68852 1.47366,17.53147 1.77255,26.28024 0.15555,4.89431 0.68667,9.78609 0.70476,14.68619 0.005,1.30249 -0.1068,2.60323 -0.11913,3.90567 -0.0263,2.7772 0.0597,3.577 0.21172,6.22975 0.57932,6.23222 -0.65825,-1.86229 4.16205,-3.665 3.93897,-1.47311 9.25344,2.30203 12.61421,-0.22595 2.66333,-2.00336 0.90464,-6.62285 0.92131,-9.95549 0.0477,-9.54034 -1.43226,-18.30528 -2.66124,-27.73774 -1.85629,-8.49034 -2.77777,-14.63605 -5.91255,-22.56985 -0.77292,-1.95618 -1.60868,-3.95461 -2.93908,-5.58375 -0.97041,-1.18832 -2.32008,-3.12798 -3.7732,-2.63578 -18.97388,6.42682 -15.95784,6.19568 -18.26805,20.71232 -3.32986,19.86192 -3.51135,40.10822 -1.71432,60.13572 0.79693,8.88158 2.55133,20.94382 5.24848,29.82871 0.68903,2.2698 1.89077,4.3511 2.83616,6.52665 7.39711,3.6937 9.10953,5.19744 22.04408,-2.37258 3.68102,-2.15433 4.16829,-7.44705 6.05028,-11.27447 2.67743,-5.44509 5.30907,-10.92106 7.6219,-16.53074 5.99701,-14.54548 7.85418,-21.77231 12.41034,-36.60505 1.18374,-4.66801 4.92772,-17.41461 4.99884,-23.51882 0.0117,-1.00572 -0.26294,-2.4693 -1.22679,-2.7567 -5.57391,-1.66201 -11.45405,-3.41798 -17.23167,-2.74719 -3.15813,0.36667 -5.32751,3.51455 -7.69126,5.64081 -4.44704,4.00023 -8.45808,8.46008 -12.68712,12.69012 -27.04579,21.37936 -51.98161,45.54738 -73.98713,72.10067 -2.43208,2.93471 -8.26873,5.48537 -6.9663,9.06744 1.10242,3.03198 6.22551,-1.6959 9.33826,-2.54385 1.77524,-4.74185 4.29408,-9.26849 5.32573,-14.22554 2.49158,-11.97197 6.96854,-59.89749 7.69896,-69.10148 2.14285,-27.00232 2.97849,-47.21865 3.52178,-73.98674 0.17552,-8.64797 0.11683,-17.29909 0.17524,-25.94864 -9.88845,10.59217 3.88696,-19.71079 -2.90855,-20.24044 -4.9717,-0.3875 -10.21035,0.91888 -14.59177,3.30029 -1.93112,1.04961 -2.2383,3.8874 -2.6161,6.05261 -1.15632,6.62684 -1.78864,13.36181 -1.945,20.08696 -0.21842,9.39479 0.54855,18.78665 0.82283,28.17998 3.61461,34.7124 2.70536,29.92735 8.0448,64.94826 1.64902,10.81573 3.13576,21.66521 5.25431,32.39885 2.9886,15.14167 7.21956,32.22651 13.26488,46.69987 1.55842,3.7311 3.87866,7.09613 5.81799,10.6442 8.71015,4.85525 11.43187,7.90503 24.54551,-4.95711 4.22129,-4.14034 3.77541,-11.23066 5.05019,-17.00446 4.48396,-20.3089 6.31902,-37.96458 6.52588,-58.9627 0.10689,-10.85034 -0.88715,-21.68359 -1.33072,-32.52539 -1.30032,-9.20092 -2.06473,-18.49365 -3.90097,-27.60277 -1.33551,-6.62517 -2.79377,-13.33695 -5.59187,-19.48895 -5.80517,-12.76346 -16.73053,-15.39691 -31.1573,-6.8896 -6.76757,3.99077 -14.35283,33.41113 -15.85441,38.24609 -3.64769,19.81993 -5.26027,23.73833 -5.61329,43.30865 -0.0908,5.03565 0.11384,10.09577 0.76431,15.09005 0.30739,2.36011 -0.27686,7.07469 2.09029,6.82731 22.28609,-2.32902 16.73699,-14.75009 17.85843,-31.27783 -0.55101,-13.83575 -0.29155,-27.72763 -1.65301,-41.50725 -3.2159,-32.54873 -9.61861,-63.62991 -18.18785,-95.13777 -1.98815,-7.31015 -14.56346,-50.0693 -22.14592,-60.11525 -2.70725,-3.58682 -7.95673,-4.17951 -11.9351,-6.26926 -8.23015,4.71864 -18.75613,6.75424 -24.69045,14.15591 -8.07526,10.072 -16.15101,59.51051 -17.3593,68.01641 -3.54368,24.94636 -5.31687,54.1631 -5.31584,79.47977 4e-4,9.83947 0.79926,19.66271 1.19889,29.49406 9.32913,-3.95201 -2.56451,25.45843 6.61784,27.31298 5.53632,1.11816 10.9591,-2.74375 16.40284,-4.24935 1.78973,-0.495 4.36922,-0.13673 5.28873,-1.75 2.66111,-4.66889 7.37097,-34.03407 7.6678,-35.67445 4.56658,-29.33661 6.02179,-59.118 3.15965,-88.70818 -1.06712,-11.0325 -3.52385,-27.548 -8.20066,-38.46545 -1.07974,-2.52052 -3.17108,-4.47433 -4.75661,-6.7115 -7.02182,1.39075 -15.47606,-0.29973 -21.06545,4.17227 -6.11081,4.88917 -13.11447,46.10973 -13.34441,47.5931 -4.34372,28.02154 -5.73234,49.00489 -4.69754,77.45286 0.43473,11.95123 2.07871,23.82778 3.11807,35.74167 1.95499,9.48838 3.23554,19.14111 5.86497,28.46513 2.34898,8.32956 7.08649,21.82589 14.93657,27.97243 3.3118,2.5931 7.24659,6.42945 11.3514,5.51142 14.22443,-3.18126 14.34579,-11.29256 17.15844,-21.35536 0.32838,-3.32897 0.83692,-6.64506 0.98515,-9.9869 0.45512,-10.26088 -1.03497,-6.88856 0.59653,-16.75057 0.63171,-3.81857 4.46945,-18.60449 5.07112,-21.39982 1.00777,-4.68212 1.78853,-9.41023 2.6828,-14.11535 1.3071,-11.83406 2.23719,-15.52333 1.6358,-27.07829 -0.16245,-3.12133 -0.4639,-6.25923 -1.17567,-9.30266 -1.68263,-7.19475 -7.88267,-13.72558 -17.40225,-11.53136 -5.06294,1.16698 -6.70978,7.93471 -10.06467,11.90207 -2.62695,4.92926 -5.64475,9.66934 -7.88084,14.78777 -4.81877,11.03025 -8.46535,23.91638 -10.60856,35.75638 -0.89059,4.91992 -1.15061,9.93335 -1.72592,14.90002 -0.39748,2.04869 28.57533,7.66985 28.97281,5.62116 v 0 c 1.63886,-4.5698 3.47575,-9.07335 4.91657,-13.7094 5.11346,-16.45336 8.97928,-33.44208 9.16592,-50.74436 -5.14562,-6.08766 -7.28197,-9.84898 -17.14819,-11.89862 -1.40978,-0.29287 -1.52207,2.47459 -1.97671,3.8408 -0.92453,2.77826 -1.5599,5.64964 -2.13674,8.52031 -2.15831,10.74096 -2.2317,14.58014 -3.34195,25.82054 -0.8268,12.31885 -1.43978,24.65032 -2.30114,36.96639 -0.20893,2.98732 -0.43341,5.97374 -0.69257,8.95713 -0.23472,2.70205 -0.6191,5.39143 -0.78898,8.09833 -0.18284,2.91336 -0.17906,5.83543 -0.2686,8.75315 0.99182,13.63337 -2.20438,3.22178 11.20503,7.42599 2.70925,0.84943 3.89686,5.97027 6.65874,5.31179 2.55993,-0.61033 1.99748,-4.90714 2.4884,-7.49263 2.64724,-13.94195 3.07631,-30.94067 3.91205,-44.61896 0.27004,-11.65108 0.9016,-23.2994 0.81012,-34.95326 -0.23957,-30.51672 -1.4494,-46.14406 -5.63019,-76.16464 -3.3e-4,-0.002 -5.49973,-41.30197 -10.91293,-46.01003 -5.13472,-4.46586 -13.17326,-3.42086 -19.75989,-5.13129 -1.26264,2.13246 -2.99983,4.0478 -3.78791,6.39739 -3.60501,10.74808 -5.15598,27.7157 -5.70873,38.11504 -1.55631,29.27974 0.59011,58.55858 4.26252,87.60068 1.52471,10.14074 3.29569,26.00843 6.74973,36.44547 1.43657,4.34085 1.29617,10.84886 5.54105,12.5482 10.758,4.30671 20.34021,-3.41633 24.7305,-11.55398 3.22301,-5.97403 5.17333,-12.55166 7.75999,-18.8275 2.4172,-9.88685 5.43814,-19.64535 7.25161,-29.66054 4.82471,-26.64543 6.89277,-53.39082 6.44433,-80.47375 -0.21858,-13.20084 -0.90278,-26.43895 -2.741,-39.51301 -1.38391,-9.84277 -0.93206,-21.05761 -6.89353,-29.01099 -4.90933,-6.5497 -14.93172,-6.71146 -22.39758,-10.06719 -13.76264,9.87578 -10.08194,4.34585 -10.02216,31.80034 0.0614,28.20791 4.62401,59.83955 11.4611,86.90828 4.18304,16.56106 9.17887,32.9752 15.50765,48.84067 5.50848,13.80907 13.26538,26.61136 19.89806,39.91705 5.71378,7.58847 8.99377,17.88182 17.14132,22.7654 24.37468,14.61 30.02859,-3.60131 34.19791,-20.12044 4.38513,-17.37419 4.52284,-23.90116 6.68083,-42.10891 0.01,-0.35108 2.1809,-30.34588 -1.63752,-34.28419 -4.43058,-4.56969 -11.35251,-7.13814 -17.7174,-7.12061 -2.68381,0.007 -3.03418,4.56591 -3.64441,7.17944 -3.27254,14.01578 -2.92363,32.84328 -3.33422,46.54199 0.4981,10.63171 0.61637,21.28802 1.49431,31.89511 1.53413,18.53512 4.50928,39.42798 8.72028,57.70171 1.2848,5.57542 0.65481,12.57158 4.84613,16.4663 13.89115,12.90815 16.10375,9.03563 23.17937,2.76654 0.9444,-3.97629 2.35155,-7.87045 2.83319,-11.92887 1.8139,-15.28448 0.95398,-33.75062 -0.63126,-48.66492 -1.16867,-10.99522 -3.02425,-21.90935 -4.83652,-32.81697 -5.26541,-31.69117 -6.22347,-33.53931 -13.45864,-64.39554 -7.85052,-24.90654 -6.88943,-25.2121 -17.15445,-46.78074 -2.0766,-4.36332 -2.61018,-10.45084 -6.84444,-12.77934 -11.37374,-6.25464 -21.79027,-3.38359 -28.86728,5.6002 -3.97757,5.04926 -6.45957,11.11478 -9.68935,16.67218 -2.97397,9.14879 -6.68025,18.09117 -8.92191,27.44638 -9.37004,39.10431 -10.94857,80.39944 -4.30827,120.08389 1.96278,11.73014 4.42224,23.52608 8.84801,34.56515 3.65557,9.11798 10.09692,16.85393 15.14538,25.28089 7.89107,1.63658 15.61564,5.06125 23.6732,4.90973 8.89786,-0.16731 29.47415,-14.45055 34.23429,-18.10493 15.64533,-12.011 30.94467,-27.01397 42.41318,-43.08524 5.68943,-7.97282 9.804,-16.95946 14.70601,-25.43919 0.24975,-0.6625 11.77997,-27.00339 8.60337,-31.70937 -3.47099,-5.1421 -10.51322,-7.11611 -16.56352,-8.48826 -2.18251,-0.49497 -4.15831,1.87577 -5.77637,3.42181 -7.05151,6.73761 -9.97748,14.46553 -14.50354,23.07043 -2.30599,6.10391 -4.96051,12.08729 -6.91799,18.31173 -4.37369,13.90758 -6.55779,24.51141 -7.3144,38.97176 -0.22723,4.34299 -2.36567,9.74099 0.46996,13.03832 4.08973,4.75563 11.21206,5.80179 17.23573,7.55029 1.03025,0.29905 1.79354,-1.17756 2.69031,-1.76633 0.953,-2.36397 2.21829,-4.62492 2.85901,-7.09191 2.42515,-9.33766 3.32767,-21.35188 3.37908,-30.68966 0.11311,-20.54749 -2.32088,-41.09457 -8.58446,-60.71083 -6.11761,-17.09648 0.5678,-8.59065 -21.07178,-11.63853 -1.22192,-0.1721 -2.36724,-2.6761 -3.23535,-1.79912 -1.47789,1.49297 -0.98741,4.10507 -1.12251,6.20147 -0.56369,8.74724 0.53219,14.44345 1.52395,23.36115 2.34495,11.51721 2.89329,16.66581 7.00474,27.56398 3.6005,9.5438 7.01335,17.31897 19.64358,19.0081 3.67711,0.49176 4.50983,-5.56658 5.0032,-8.2148 0.59958,-3.30369 0.97598,-6.59302 1.4354,-9.91623 0.74148,-5.3635 1.80741,-10.69419 1.85938,-16.1363 -0.0555,-6.20822 0.0438,-8.28354 -0.49304,-14.51256 -0.75294,-8.73733 -2.76456,-17.28614 -3.72589,-25.99819 -0.22661,-5.30545 -0.51864,-6.11098 0.33742,-11.49242 1.97927,-12.4422 7.56428,-23.98158 10.39653,-36.21294 2.3103,-7.45824 4.50713,-14.95141 6.83269,-22.4049 2.60159,-8.33819 5.60769,-16.54892 8.10465,-24.91904 4.30222,-14.42161 4.88697,-18.2799 8.27913,-33.33648 2.13955,-13.57461 3.60975,-19.78985 3.95003,-33.25735 0.0857,-3.39123 2.09159,-7.99772 -0.51923,-10.1637 -3.04077,-2.52267 -8.10624,1.15531 -11.85246,-0.10005 -8.71646,-2.9209 -2.16268,-11.00218 -7.96305,-0.42982 -1.29241,4.17224 -2.76659,8.29246 -3.87722,12.51672 -6.32651,24.06258 -10.28722,48.6997 -13.2784,73.37139 -1.1092,9.14889 -2.19348,18.30764 -2.85776,27.49955 -0.54562,7.5501 -0.51317,15.13088 -0.76975,22.69632 -0.5349,4.6163 -1.18835,9.2204 -1.60469,13.8489 -0.25435,2.82759 -1.45786,5.87025 -0.40629,8.50733 0.48683,1.22082 2.68948,-0.10872 3.92931,0.32745 3.11771,1.0968 5.69057,3.85035 8.97568,4.21247 4.21246,0.46434 -8.69826,-22.12644 0.95804,-12.67779 0.91904,-23.88741 0.12693,-7.61829 1.97697,-34.84862 0.50931,-7.49641 0.84011,-15.0058 1.46728,-22.49327 0.62752,-7.49152 1.53498,-14.95695 2.29616,-22.43606 2.75359,-27.05596 1.16234,-12.68912 4.03154,-37.22121 -0.06,-4.44646 1.78679,-9.35116 -0.18012,-13.33938 -7.05944,-14.31413 -15.24123,-20.6602 -17.93258,-6.678 -0.55789,2.89836 -0.38622,3.11991 -0.36595,6.27203 0.26934,5.70801 0.41123,11.51196 1.22756,17.17173 1.47936,10.25669 4.46294,20.18415 8.46883,29.73013 1.47222,6.08359 2.44157,9.21318 3.10561,15.45784 1.00953,9.49384 0.66561,19.5444 -1.28673,28.89756 -0.83194,3.98557 -2.16073,7.85103 -3.24109,11.77655 -1.78611,4.64113 -3.70216,9.23432 -5.35833,13.92339 -4.10017,11.60864 -8.33904,25.45692 -11.25689,37.3485 -3.02359,12.32252 -5.77418,25.90168 -6.6788,38.6247 -0.34049,4.78874 0.0232,9.60163 0.0349,14.40245 2.0699,11.36893 -0.49504,8.98934 17.61243,11.6348 0.81375,0.11888 0.91111,-1.38676 1.19418,-2.1589 1.89225,-5.16155 2.27496,-10.77702 3.03195,-16.16451 0.1664,-2.89263 0.49435,-7.20809 0.3904,-10.20088 -0.0338,-0.97314 0.64449,-2.89455 -0.3292,-2.90257 -3.30532,-0.0272 -6.24532,2.28189 -9.5064,2.8216 -0.64777,0.10721 -1.62159,-1.61346 -1.71778,-0.96396 -0.10267,0.69336 1.11442,0.85043 1.67163,1.27564 1.15019,0.63535 2.17007,1.61126 3.45059,1.90605 6.75637,1.55537 11.20927,2.46725 16.53884,-2.67973 3.49438,-3.37466 4.87181,-9.20598 4.75019,-13.83213 -0.077,-2.92787 -0.91723,-5.78551 -1.37585,-8.67827 -1.31635,-3.41988 -2.33055,-6.97197 -3.94904,-10.25965 -6.48652,-13.1762 -16.19184,-24.72418 -27.11694,-34.44009 -3.34088,-2.97111 -7.09598,-5.44197 -10.58513,-8.23748 -2.19783,-1.76089 -4.31539,-3.61969 -6.47309,-5.42953 -4.28263,-5.20115 -5.773,-6.27172 -8.46842,-12.76895 -6.65007,-16.02986 -5.40615,-32.47056 -4.11897,-49.3459 0.46262,-7.48365 1.77025,-28.32215 2.15178,-35.7625 1.32361,-25.81205 0.27794,-7.44313 1.03114,-30.25714 0.10133,-3.06944 0.5083,-6.13202 0.44656,-9.20252 -0.0277,-1.37693 -0.4756,-2.71304 -0.71341,-4.06956 -4.43028,-0.95153 -8.81669,-2.13707 -13.29084,-2.85459 -0.24791,-0.0397 -0.34773,0.41594 -0.35,0.66701 -0.0101,1.11973 0.14916,2.23702 0.31378,3.34462 0.26675,1.79481 0.56387,3.58842 0.97918,5.35477 1.59752,6.79446 1.87994,6.74675 4.53945,13.243 4.26798,7.64738 4.86089,11.55783 18.45397,10.9607 4.30844,-0.18926 4.46612,-6.89286 4.46654,-9.69425 2.1e-4,-1.35524 0.17667,-2.74952 -0.15865,-4.06262 -0.22519,-0.88183 -0.97793,-1.53525 -1.46689,-2.30287 -5.54168,-0.52287 -11.09492,-2.20225 -16.62503,-1.5686 -1.56116,0.17888 -2.29649,2.30486 -2.79783,3.79412 -1.35197,4.01608 -2.10849,8.22939 -2.66396,12.43036 -4.00101,30.25938 -2.28963,60.98161 -0.6173,91.31666 1.03549,36.88548 0.6382,41.72919 3.80563,78.52137 0.15382,1.78672 4.95896,51.87304 7.42526,58.19889 2.26065,5.7984 18.84361,12.63714 22.31883,14.37172 1.41856,-2.44096 3.26219,-4.68024 4.25569,-7.32289 4.71005,-12.52848 8.39633,-32.66577 10.24748,-44.76519 5.73419,-37.47951 8.50078,-75.48262 7.1896,-113.39521 0.10845,-14.27767 0.37432,-37.22987 0.19392,-52.32729 -0.0587,-4.91485 -0.0133,-9.84062 -0.40797,-14.73995 -0.21162,-2.6269 0.70047,-6.19677 -1.40624,-7.78018 -13.67594,-10.27884 -13.67247,-8.39134 -21.57291,-2.76896 -2.24758,4.04044 -4.86666,7.89555 -6.74274,12.12131 -6.75216,15.20884 -12.41594,34.32499 -16.39433,50.1147 -5.12438,20.33795 -10.37024,46.40513 -12.5642,67.3 -1.00151,9.53823 -0.93159,19.15869 -1.39738,28.73803 -0.083,5.72846 -0.62051,11.46838 -0.2489,17.18537 0.12817,1.97179 0.09,4.5728 1.73442,5.66845 3.62224,2.4135 8.16043,3.36157 12.49,3.8093 0.91306,0.0944 1.23759,-1.46923 1.39681,-2.37324 1.04423,-5.92904 1.39913,-25.03193 1.52243,-28.62661 0.34566,-13.43478 0.79069,-37.60469 1.90482,-50.5326 0.82532,-9.57663 2.34968,-19.08017 3.4888,-28.62456 3.45483,-28.94717 6.9059,-57.90619 9.32582,-86.96241 0.007,-0.88001 1.55508,-32.47513 -2.51291,-36.327353 -6.85185,-6.488433 -16.41002,-6.913404 -21.631,-0.559743 -5.74539,6.991836 -8.88972,15.829436 -12.55324,23.891476 -2.5258,6.94729 -5.34327,13.79537 -7.5774,20.84187 -10.67084,33.65605 -16.82011,68.76638 -19.13246,103.96913 -0.34544,5.25886 -0.34006,10.53489 -0.51009,15.80234 0.16325,3.10389 0.063,6.23293 0.48974,9.31167 0.0989,0.71306 0.36736,1.69088 1.06179,1.88058 5.12395,1.39968 10.40031,2.42205 15.70474,2.69943 0.86667,0.0453 1.50265,-1.00784 1.90118,-1.77878 2.65491,-5.13583 3.93816,-13.37008 5.06573,-18.43114 0.80446,-5.62322 1.7315,-11.23026 2.41338,-16.86965 2.11561,-17.49689 2.38683,-25.68711 4.14055,-43.56651 2.39519,-24.41926 5.54818,-48.77679 6.81802,-73.29828 0.53877,-4.63172 3.75034,-32.389395 4.5018,-38.32986 0.54048,-4.272547 1.00025,-8.560047 1.75387,-12.800193 0.51489,-2.896967 3.66749,-6.130325 2.04725,-8.586413 -4.40703,-6.680546 -11.70504,-9.274069 -18.49653,-12.017568 -2.7363,2.101933 -5.83009,3.806444 -8.20889,6.305797 -10.28326,10.804429 -20.96111,27.507905 -27.97241,39.84306 -17.16453,30.197977 -30.40303,62.385317 -40.67111,95.530897 -8.1853,28.70363 -10.61602,14.01899 2.67726,30.41186 1.98207,2.44423 2.31812,6.47923 5.10458,7.94162 1.40712,0.73849 2.21666,-2.30949 3.05709,-3.65821 4.60194,-7.38521 8.4372,-16.73823 11.93848,-24.4393 2.8625,-6.2541 5.87966,-12.4397 8.58751,-18.7623 6.13784,-14.33135 11.98452,-29.89908 17.10158,-44.61709 25.04908,-72.047665 -8.21283,22.33212 11.75854,-36.74829 1.30222,-3.852282 2.89911,-7.598598 4.34867,-11.397901 3.80645,-11.091828 2.85099,-8.123159 6.14617,-18.361128 0.71546,-2.222922 1.56585,-4.40818 2.12695,-6.674993 0.48261,-1.949698 2.36657,-4.474179 0.99627,-5.942684 -9.74951,-10.448235 -10.60168,-9.557008 -18.85596,-8.623938 -2.40992,2.032186 -5.05378,3.815634 -7.22976,6.096559 -9.61463,10.07835 -17.2947,21.460437 -24.50115,33.367864 -5.3125,8.778001 -10.25156,17.783111 -15.01259,26.872031 -15.87459,30.30494 -14.57057,29.44299 -27.14126,61.15654 -6.13675,15.97965 -12.4284,29.99991 -15.80192,46.75406 -0.99007,4.91711 -4.00859,10.74472 -1.33428,14.9881 4.2486,6.74136 14.69881,11.82667 21.07903,6.11141 2.72012,-2.43661 4.68789,-5.60073 7.03184,-8.4011 2.86326,-5.33112 6.124,-10.46715 8.58978,-15.99337 14.65141,-32.83609 21.40485,-68.78586 22.27367,-104.60243 0.15126,-6.2358 -0.30075,-12.47165 -0.45113,-18.70747 -0.67896,-4.304104 -1.1559,-8.644969 -2.03687,-12.912306 -0.52261,-2.531477 -1.51277,-4.944976 -2.16597,-7.445941 -0.27243,-1.043067 -0.59607,-2.098447 -0.60837,-3.176432 -0.0117,-1.027422 0.37335,-2.02095 0.53749,-3.035243 0.82666,-5.108272 0.61682,-3.934876 1.116,-9.467065 -0.1543,-2.183053 1.27387,-5.217574 -0.46291,-6.54916 -7.87195,-6.0354 -14.14361,-8.325828 -21.20798,-3.277925 -6.70721,4.792698 -12.67271,12.71409 -17.01236,19.282235 -3.93792,5.960106 -7.25829,12.30599 -10.88743,18.458984 -3.51239,7.528665 -7.34784,14.914883 -10.53715,22.585993 -3.44321,8.28177 -13.41927,36.5508 -16.05244,45.91713 -1.75632,6.24734 -2.92306,12.64609 -4.29035,18.98994 -0.86369,4.00727 -1.8922,7.99354 -2.40207,12.06099 -0.21961,1.75198 0.15119,3.52814 0.22678,5.29221 2.26957,0.59678 4.85174,0.22478 6.90861,1.35455 1.06,0.58222 0.97201,2.231 1.65732,3.22745 0.0912,0.13264 0.3867,-0.007 0.45894,-0.1504 1.96732,-3.91768 2.69406,-8.4053 5.4033,-11.99047 4.30939,-8.32579 8.34499,-16.35505 13.10323,-24.47042 10.25015,-17.48202 22.19993,-33.9212 37.93036,-46.90824 3.49537,-2.70693 16.25245,-12.50989 19.81899,-15.56248 2.32687,-1.99156 4.50872,-4.148072 6.69619,-6.291811 0.8411,-0.824284 2.93356,-1.565406 2.38429,-2.607135 -7.28974,-13.825696 -10.29435,-3.365953 -6.76532,-12.008287 1.0005,-0.631791 1.85653,-2.194035 3.00151,-1.895373 3.68328,0.960768 13.50502,3.598379 10.10743,5.31478 -4.29132,2.167895 -9.25237,-2.825281 -14.03348,-3.331415 -0.94776,-0.100332 -1.57604,1.072254 -2.37322,1.594583 -6.00404,3.93397 -2.16773,0.910292 -9.30261,8.06479 -2.78927,3.675708 -5.74281,7.232359 -8.36781,11.027128 -3.85629,5.57475 -7.45642,11.32364 -11.06325,17.06295 -4.77809,7.60306 -9.6519,15.15448 -14.08959,22.96111 -18.30699,32.205 -33.84543,65.95571 -46.02035,100.95469 -3.94096,9.94172 -16.43611,40.9375 -20.42982,52.76942 -1.78841,5.29842 -3.34551,10.68555 -4.56851,16.14228 -0.47401,2.11494 -2.06035,4.97601 -0.50237,6.48278 2.76426,2.67339 13.78693,1.02494 10.95264,3.62398 -3.68641,3.38044 -10.00321,0.0612 -15.00481,0.0919 -0.93311,0.7782 -2.04201,1.38448 -2.79934,2.33461 -3.11804,3.91183 -4.94935,9.02131 -6.29352,13.70879 -1.9584,6.82952 -3.55524,15.3548 -3.46073,22.48641 0.0433,3.26708 0.84651,6.47968 1.26977,9.71953 6.30516,1.94336 12.31837,5.73093 18.91549,5.83009 3.09003,0.0464 5.6046,-3.00176 7.51256,-5.43285 4.06463,-5.17906 7.26144,-11.03509 10.08095,-16.9844 18.19157,-38.38525 25.97567,-80.43059 32.76136,-122.02322 3.45339,-39.98427 6.91775,-59.55582 3.81254,-98.99813 -0.90208,-11.45823 -0.88268,-23.55732 -5.65235,-34.014613 -6.82874,-14.971713 -18.49577,-31.093357 -33.73047,-17.75597 -5.01259,4.388329 -7.27878,11.160343 -10.91817,16.740515 -3.85078,9.619548 -8.4072,18.985848 -11.55233,28.858658 -8.1849,25.69302 -13.90673,54.97443 -16.25972,81.74966 -1.1869,13.50595 -0.98435,27.10255 -1.05227,40.66037 -0.0493,9.83972 -0.20011,19.7127 0.70075,29.51122 0.64041,6.96561 2.60535,13.74523 3.90803,20.61785 0.76589,2.92013 -0.2323,7.11328 2.29767,8.7604 5.60075,3.64632 15.50289,8.17234 17.65315,0.95838 0.40271,-1.35109 0.89092,-2.80183 0.6154,-4.18447 -0.59015,-2.96158 -0.65762,-6.78084 -3.14242,-8.49694 -3.12886,-2.16093 -7.54039,-0.98995 -11.31058,-1.48493 -1.40103,0.48049 -2.8511,0.83659 -4.20308,1.44148 -3.1618,1.41461 -5.44017,3.14085 -8.23879,5.14547 -0.90521,0.6484 -3.23467,1.01683 -2.68609,1.9858 1.06653,1.88387 3.75776,2.1506 5.63665,3.22591 0.21565,0.69933 0.43131,1.39866 0.64696,2.098 0.66682,-1.93842 1.2163,-3.92127 2.00046,-5.81526 4.87764,-11.78101 11.86847,-25.775 17.02589,-36.84459 18.13152,-38.91648 35.62709,-78.16467 50.08868,-118.62654 9.8342,-33.95635 16.44484,-51.75062 21.27956,-85.833573 2.77818,-19.585053 7.45119,-33.997448 -18.15484,-40.22552 -10.83487,-2.635331 -13.3897,33.162385 -20.21856,26.650792 -4.14997,10.051406 -8.94671,19.859527 -12.44989,30.154218 -9.47251,27.836543 -14.60713,52.061283 -18.29531,81.309973 -3.05864,24.25627 -4.00371,43.1875 -1.47538,67.0267 0.58888,5.55243 2.22881,10.94246 3.34321,16.41368 6.1652,2.11072 12.0071,5.72862 18.49559,6.33215 2.36473,0.21996 4.32733,-2.24469 5.84955,-4.06765 3.1125,-3.72743 5.67095,-7.93767 7.81393,-12.2953 12.96882,-26.37142 18.53086,-55.62009 23.67718,-84.2744 1.59551,-13.52813 5.75495,-46.95993 6.72982,-61.688654 0.50453,-7.622608 0.68121,-15.271053 0.60262,-22.909936 -0.13506,-13.12658 0.61743,-25.128904 -13.96041,-32.941032 -3.47708,-1.863333 -7.48231,2.502682 -11.22347,3.754023 -3.54151,3.305642 -7.71342,6.044597 -10.62455,9.916926 -11.94433,15.88812 -22.56963,40.037579 -29.17413,57.703633 -5.58897,14.94969 -10.40738,30.19397 -14.75399,45.55095 -12.83932,45.36258 -12.88798,53.28939 -20.50174,99.03206 -0.52205,6.93841 -7.66682,48.69809 2.0656,60.83341 4.47352,5.57801 12.52377,11.09741 19.4029,9.14697 5.62203,-1.59401 4.67078,-10.75929 6.18763,-16.40263 6.47907,-24.10499 6.98824,-39.508 9.78144,-65.10231 0.84138,-31.25409 2.20713,-50.7509 -0.19936,-81.80345 -0.85228,-10.9976 -1.95849,-22.03254 -4.30657,-32.8103 -1.67569,-7.69143 -1.61703,-17.33302 -7.70504,-22.323225 -6.04036,-4.951148 -15.78112,-5.374242 -23.23317,-3.036136 -4.57588,1.435696 -4.7032,8.359391 -7.05479,12.539081 -2.44609,7.16533 -5.28025,14.20971 -7.33827,21.49598 -6.38489,22.60529 -8.51119,36.01459 -10.66878,59.69234 -1.30807,14.35497 -2.30648,35.18891 -0.57928,50.11014 0.53115,4.58854 2.11343,8.99336 3.17015,13.49004 6.06296,1.69808 11.8945,4.94015 18.18888,5.09423 2.34492,0.0574 4.02512,-2.61345 5.39587,-4.51686 2.90811,-4.0382 5.25913,-8.48926 7.25376,-13.04839 11.81227,-26.99925 17.21964,-56.27359 21.14023,-85.28745 0.49284,-10.02435 4.12731,-46.15551 -1.53915,-57.938093 -3.48714,-7.25098 -10.15143,-13.074295 -17.22385,-16.910655 -5.1825,-2.811193 -17.34639,12.129567 -17.70636,12.624186 -4.51191,6.199568 -7.93854,13.120502 -11.9078,19.680752 -4.33114,9.78526 -9.19161,19.35296 -12.993413,29.35578 -9.192364,24.18576 -16.396787,50.39879 -21.601592,75.70157 -4.277806,20.79624 -8.243662,45.26721 -7.42266,66.84721 0.232642,6.11498 2.131883,12.05171 3.197825,18.07756 6.041917,1.34958 11.94091,4.32055 18.12575,4.04874 2.34998,-0.10327 3.735583,-3.02754 4.917271,-5.06143 2.560992,-4.4079 4.526633,-9.16935 6.157099,-13.99944 9.55008,-28.29101 12.965,-58.21753 14.3828,-87.88719 -0.0173,-4.08453 1.48023,-46.58949 -3.94437,-53.8729 -5.46467,-7.3372 -20.594924,-15.70186 -26.071802,-4.43202 -6.167937,12.69184 -9.499887,38.56709 -11.609718,50.27603 -1.458062,13.22878 -3.301909,26.42072 -4.374186,39.68635 -2.097262,25.94621 -3.28572,57.8041 -2.21984,83.9599 0.428895,10.52471 1.290043,21.05254 2.820385,31.47422 0.770299,5.24577 0.407641,11.53557 4.059679,15.37927 3.893638,4.09798 10.647208,3.80163 15.970812,5.70245 0.289078,-1.14327 0.784192,-2.25349 0.867234,-3.42981 0.335325,-4.75003 -0.242254,-9.80558 -1.570728,-14.36904 -0.574079,-1.97203 -0.391083,-5.13104 -2.367865,-5.68853 -5.675921,-1.60071 -11.94543,-1.29388 -17.691924,0.0313 -1.675563,0.3864 -1.568203,3.06072 -2.352304,4.59108 -0.320133,3.13048 -0.875155,6.24579 -0.9604,9.39145 -0.305191,11.26197 1.14811,25.68389 5.203083,36.2489 1.393556,3.63083 1.742806,8.82886 5.303944,10.39196 5.443979,2.38953 11.889592,-0.15722 17.834388,-0.23582 1.257596,-1.50666 2.77047,-2.83269 3.772787,-4.51997 1.410152,-2.37382 2.367145,-4.99268 3.399395,-7.55354 2.10341,-5.21824 5.07556,-13.91254 6.47149,-19.33102 0.67137,-2.60602 3.35338,-5.90706 1.56704,-7.91978 -2.76188,-3.11187 -7.94032,-2.48963 -11.910477,-3.73444 -1.11704,-1.74918 -1.331434,-5.72533 -3.351122,-5.24754 -2.107722,0.4986 -1.08542,4.20698 -1.341628,6.35767 -0.124882,1.0483 -1.420324,15.06683 0.978838,16.4437 5.427094,3.11459 12.166129,4.24535 18.400849,3.71409 2.75468,-0.23473 3.96018,-3.85881 5.94027,-5.78821 2.38669,-4.78939 5.14066,-9.41272 7.16006,-14.36817 2.88278,-7.07413 5.32976,-14.32984 7.51728,-21.64888 4.96668,-16.61755 9.32603,-35.49868 11.33784,-52.75816 0.80834,-6.93485 4.0687,-14.65267 0.99551,-20.92172 -3.11852,-6.36151 -11.53512,-8.22902 -17.30269,-12.34353 -12.13384,1.7888 -7.40685,-0.79582 -13.07116,19.17433 -5.28231,18.62335 -8.83944,40.6137 -10.36348,59.74691 -0.84299,10.58313 -1.44739,21.23127 -0.94377,31.83597 0.40204,8.46557 2.43376,16.7746 3.65063,25.1619 6.60954,4.08629 12.61638,9.36621 19.8286,12.25889 1.7275,0.69286 4.07925,-0.70595 5.10698,-2.25775 2.4852,-3.75252 3.55152,-8.30041 4.7573,-12.63674 6.38702,-22.96946 7.60994,-46.94008 6.31837,-70.63392 -0.85045,-5.61171 -3.88107,-37.02617 -10.80289,-42.52339 -13.31174,-10.57201 -21.78819,-6.15552 -29.83771,2.68267 -8.395225,9.21777 -14.176316,19.92543 -20.672293,30.4747 -3.386267,6.7209 -7.098983,13.28702 -10.1588,20.16268 -6.030698,13.55148 -7.795056,20.30075 -11.695744,33.69769 -0.681242,2.33973 -1.259898,4.70922 -1.97491,7.03885 -0.09715,0.31654 -0.780974,0.81749 -0.456275,0.88235 1.766862,0.35294 3.60284,0.0707 5.404261,0.10603 0.163694,0.53267 0.845649,1.16811 0.491082,1.59801 -0.296478,0.35947 -0.912125,-0.41339 -1.127197,-0.82674 -0.712866,-1.3701 -1.267411,-2.84459 -1.570928,-4.35892 -2.367999,-11.81463 -0.415687,-24.02174 0.106112,-35.87972 0.991862,-10.90463 2.294286,-23.67179 2.726891,-34.62221 0.0041,-0.10403 1.81957,-17.87429 -2.319278,-20.85534 -4.082617,-2.94055 -9.088888,-4.92118 -14.09818,-5.39192 -1.347895,-0.12667 -0.462095,2.66795 -0.693143,4.00192 -0.01448,2.70752 -0.145518,5.41693 -0.04344,8.12256 0.430123,11.40043 1.770323,23.08925 4.999878,34.06617 0.842113,2.86226 0.632104,6.81764 3.182581,8.36578 5.177745,3.14289 11.772325,2.8565 17.658487,4.28475 0.825225,-0.88457 1.952701,-1.56286 2.475673,-2.65371 0.870041,-1.81479 1.812274,-9.613 2.007378,-11.07826 0.664126,-4.9877 1.414615,-10.01535 1.432734,-15.05715 0.633988,-3.34153 0.25668,0.68016 -3.093328,0.0481 -8.952775,-1.68925 -8.560793,-7.33297 -8.509143,0.33696 0.01475,2.19102 0.04632,4.38189 0.06949,6.57283 0.268807,9.06777 0.466178,18.12415 0.864135,27.18725 0.119076,2.71183 -0.609181,8.01387 1.767468,8.75817 3.787108,1.18603 7.814894,1.38667 11.72234,2.08 2.535164,1.24091 1.30216,1.08205 1.3971,-4.11424 0.05362,-2.93461 0.06896,-5.87056 0.02144,-8.80528 -0.215312,-13.29826 -0.934262,-26.59339 -2.039458,-39.84579 -0.239247,-3.76247 -0.460702,-7.52612 -0.717741,-11.28741 -0.180608,-2.64288 -0.213895,-5.30334 -0.59518,-7.9248 -0.15186,-1.04408 0.01318,-2.69231 -0.994523,-3.0049 -2.901425,-0.90003 -6.095132,0.22146 -9.11251,-0.13031 -0.403236,-0.047 -0.951084,-1.31231 -0.678809,-1.01119 0.503739,0.55711 0.918065,1.18898 1.377097,1.78346 4.040149,6.22041 0.205606,0.25849 4.732524,7.50467 0.844929,1.35246 2.883258,4.82485 4.285301,6.21196 0.26011,0.25735 0.7428,0.14262 1.028666,0.38312 -0.569638,0.36701 -4.142415,2.67036 -4.424009,2.84431 -0.800536,0.49451 -1.600524,0.99204 -2.428443,1.4392 -0.325001,0.17553 -1.350049,0.25278 -1.023338,0.42511 1.431861,0.75527 3.183264,0.74319 4.62691,1.47568 0.239386,0.12146 -0.359081,0.39912 -0.538622,0.59867 -0.358897,-1.10814 -0.913956,-2.17103 -1.076691,-3.32442 -0.993443,-7.04104 -0.419861,-13.56906 0.26301,-20.69317 0.532223,-5.55246 1.068459,-11.11439 2.003794,-16.61332 2.659182,-15.63358 5.589282,-24.54581 9.887609,-40.03273 6.179871,-19.33995 6.965507,-22.5032 13.787722,-41.18673 1.88015,-5.14904 3.84389,-10.26814 5.88046,-15.35734 1.12985,-2.82341 4.13109,-5.37838 3.61689,-8.37569 -0.39497,-2.30235 -3.82853,-2.67762 -5.7428,-4.01644 0.0223,-0.70787 0.0447,-1.41573 0.0671,-2.1236 0.0678,1.45348 0.33075,2.91097 0.20342,4.36046 -0.61633,7.01583 -3.34288,20.48279 -4.54612,26.42682 -1.30096,6.4268 -2.782099,12.81641 -4.069413,19.24596 -0.14523,0.72536 -6.661551,35.19425 -7.083995,37.42819 -1.765745,7.87898 -2.536496,13.15802 -5.368062,20.36516 -1.876304,4.77573 -5.139598,8.63233 -8.198732,12.65277 2.072799,0.91965 4.116283,1.90844 6.218397,2.75896 0.08946,0.0362 -0.08283,-0.18053 -0.08409,-0.27702 -0.03212,-2.45476 -0.161958,-4.91426 -0.01591,-7.36487 1.210191,-20.30648 5.409841,-40.28561 9.013358,-60.25195 4.34852,-19.30604 6.697574,-33.72396 14.276817,-52.04292 3.04478,-7.35923 7.06628,-14.28235 10.94231,-21.23975 4.93682,-8.8615 14.34786,-24.274999 21.27458,-32.544392 2.30942,-2.757071 5.23462,-4.933364 7.85194,-7.400046 -0.96651,-2.694989 -2.97206,-5.325823 -0.0796,-7.955027 0.46497,-0.422652 0.74357,1.152216 0.64214,1.772333 -0.55779,3.410082 -4.29341,14.044603 -5.39955,16.792964 -1.11106,2.760589 -2.47101,5.414365 -3.70652,8.121548 -1.21735,2.09661 -2.46412,4.17641 -3.65207,6.28982 -0.62384,1.10984 -2.38211,2.25512 -1.78228,3.37811 0.66463,1.24431 2.88519,0.29762 4.11488,0.98892 0.33735,0.18965 -0.13726,0.85068 -0.45835,1.06671 -1.01254,0.68123 -2.20534,-0.90886 -2.63428,-1.27661 -0.48442,-0.4577 -0.96332,-0.9213 -1.45324,-1.3731 -0.33638,-0.3102 -0.63765,-0.66971 -1.02541,-0.91263 -0.0884,-0.0554 -0.34114,0.17766 -0.3024,0.0808 0.18447,-0.46128 0.48347,-0.87119 0.77836,-1.27099 2.21907,-3.00859 5.15022,-6.38792 7.46694,-9.157207 10.4181,-12.637029 20.66531,-25.418127 31.16608,-37.986822 2.81987,-3.375192 5.80911,-6.608891 8.56631,-10.035469 2.72375,-3.385004 5.24636,-6.927049 7.86954,-10.390573 2.00775,-3.431278 4.24123,-6.740083 6.02325,-10.293834 1.20148,-2.396029 4.26429,-5.193296 2.89952,-7.500226 -2.88335,-4.873873 -8.53781,-7.567721 -13.46497,-10.359053 -1.15968,-0.656982 -2.90731,-0.323159 -3.96936,0.482147 -6.78636,5.145772 -15.02032,19.060361 -18.84028,24.699993 -4.25995,7.690863 -8.84331,15.211278 -12.77986,23.072588 -10.42301,20.814841 -15.08332,33.167234 -22.6477,55.037366 -4.61025,13.32912 -9.27993,26.93247 -10.77925,41.05431 7.1487,0.45672 6.12515,-1.5035 8.54801,2.33254 0.2031,0.32156 -0.51578,-0.56923 -0.69584,-0.90423 -0.37184,-0.69177 -0.72471,-1.40383 -0.94928,-2.15639 -1.05401,-3.53212 -0.60613,-3.40959 -0.0704,-7.32867 3.59398,-8.23612 1.40366,-4.14497 7.73793,-13.35435 10.62245,-15.44394 22.05147,-30.29886 32.85023,-45.61908 1.77966,-2.384166 3.40438,-4.892242 5.33898,-7.152498 2.10625,-2.460784 6.95967,-6.172685 9.04041,-8.519084 3.87756,-4.372637 5.55844,-10.048695 6.83794,-15.602995 0.15147,-2.075861 0.69301,-4.159923 0.45442,-6.227583 -0.107,-0.927316 -0.57228,-2.076969 -1.44951,-2.396083 -5.20645,-1.893969 -10.59418,-3.845886 -16.13228,-3.99971 -1.51602,-0.04211 -2.29081,2.100631 -2.9429,3.469885 -1.54098,3.23572 -2.63192,6.68498 -3.54389,10.150932 -1.45605,5.533738 -2.36429,11.197298 -3.54643,16.795947 -0.9391,7.386016 -2.13786,14.743635 -2.81729,22.158046 -0.75408,8.228953 -1.19174,16.487663 -1.48084,24.746033 -0.6539,18.67859 -0.33202,37.59795 1.83191,56.18718 0.31253,2.68481 0.88134,5.33355 1.32201,8.00033 0.23544,0.97284 -0.25475,2.6389 0.70633,2.91853 5.0905,1.48111 14.40087,6.10101 17.76999,-0.003 2.13195,-3.86232 3.21932,-9.00656 3.91334,-13.15802 0.66367,-3.96991 0.98991,-7.98892 1.48486,-11.98337 0.17413,-4.95255 0.47585,-9.90225 0.52239,-14.85764 0.10428,-11.10253 -0.27613,-20.96545 -1.34096,-32.01877 -0.85914,-8.91817 -2.03405,-17.64048 -4.33615,-26.306248 -0.721,-2.714056 -1.83096,-5.309554 -2.74644,-7.96433 -0.10823,-1.289831 -18.3492,0.240911 -18.24096,1.530741 z" />
  <path
     sodipodi:type="star"
     style="fill:#ffffff;fill-opacity:1"
     id="path164"
     sodipodi:sides="3"
     sodipodi:cx="-262.03409"
     sodipodi:cy="-330.90268"
     sodipodi:r1="111.43478"
     sodipodi:r2="222.86955"
     sodipodi:arg1="0.74013087"
     sodipodi:arg2="1.7873284"
     inkscape:flatsided="false"
     inkscape:rounded="0"
     inkscape:randomized="0"
     d="m -179.75284,-255.75279 -130.16343,142.5153 -58.34016,-183.98249 -58.34015,-183.98248 188.50358,41.46719 188.503585,41.46718 z"
     inkscape:transform-center-x="-17.327358"
     inkscape:transform-center-y="-25.414651"
     transform="matrix(0.51306426,0.15001948,-0.16291442,0.49595939,336.53151,459.42451)" />
</svg>
